<svg width="64" height="64" version="1.1" viewBox="0 0 16.933 16.933" xmlns="http://www.w3.org/2000/svg">
 <g fill="#fff">
  <g transform="matrix(.61202 0 0 .60962 -1.3256 -1.2869)" stroke-width=".43316">
   <path d="m29.834 18.944c0-1.432-0.961-2.637-2.273-3.012-0.176-3.418-3.004-6.146-6.464-6.146h-4.197l-1.7833-2.1257c0.703-0.337 1.193-1.05 1.193-1.883 0-1.155-0.937-2.093-2.093-2.093s-2.093 0.938-2.093 2.093c0 0.833 0.489 1.546 1.193 1.883l1.7833 2.1257h-4.197c-3.46 0-6.288 2.729-6.464 6.146-1.311 0.374-2.273 1.58-2.273 3.012 0 1.426 0.953 2.627 2.256 3.007v0.588c0 3.574 2.907 6.481 6.481 6.481h10.194c3.574 0 6.482-2.907 6.482-6.481v-0.588c1.303-0.38 2.255-1.581 2.255-3.007zm-4.055 3.595c0 2.581-2.1 4.682-4.682 4.682h-10.194c-2.581 0-4.681-2.101-4.681-4.682v-6.271c0-2.582 2.1-4.682 4.681-4.682h10.194c2.582 0 4.682 2.1 4.682 4.682z" fill="#fff" stroke-width=".43316"/>
  </g>
  <g transform="matrix(.0055848 .0055848 -.0055848 .0055848 5.8374 7.561)" stroke-width="33.499">
   <g fill="#fff" stroke-width="33.499">
    <path d="m394 154.18c-5.331-5.33-11.806-7.994-19.417-7.994h-118.77v-118.78c0-7.611-2.666-14.084-7.994-19.414-5.329-5.326-11.797-7.992-19.419-7.992h-54.812c-7.612 0-14.084 2.663-19.414 7.993s-7.994 11.803-7.994 19.414v118.78h-118.77c-7.611 0-14.084 2.664-19.414 7.994s-7.993 11.797-7.993 19.413v54.819c0 7.618 2.662 14.086 7.992 19.411 5.33 5.332 11.803 7.994 19.414 7.994h118.77v118.78c0 7.611 2.664 14.089 7.994 19.417 5.33 5.325 11.802 7.987 19.414 7.987h54.816c7.617 0 14.086-2.662 19.417-7.987 5.332-5.331 7.994-11.806 7.994-19.417v-118.78h118.77c7.618 0 14.089-2.662 19.417-7.994 5.329-5.325 7.994-11.793 7.994-19.411v-54.819c-2e-3 -7.616-2.661-14.087-7.993-19.414z" fill="#fff" stroke-width="33.499"/>
   </g>
  </g>
  <g transform="matrix(.0055848 .0055848 -.0055848 .0055848 11.129 7.561)" stroke-width="33.499">
   <g fill="#fff" stroke-width="33.499">
    <path d="m394 154.18c-5.331-5.33-11.806-7.994-19.417-7.994h-118.77v-118.78c0-7.611-2.666-14.084-7.994-19.414-5.329-5.326-11.797-7.992-19.419-7.992h-54.812c-7.612 0-14.084 2.663-19.414 7.993s-7.994 11.803-7.994 19.414v118.78h-118.77c-7.611 0-14.084 2.664-19.414 7.994s-7.993 11.797-7.993 19.413v54.819c0 7.618 2.662 14.086 7.992 19.411 5.33 5.332 11.803 7.994 19.414 7.994h118.77v118.78c0 7.611 2.664 14.089 7.994 19.417 5.33 5.325 11.802 7.987 19.414 7.987h54.816c7.617 0 14.086-2.662 19.417-7.987 5.332-5.331 7.994-11.806 7.994-19.417v-118.78h118.77c7.618 0 14.089-2.662 19.417-7.994 5.329-5.325 7.994-11.793 7.994-19.411v-54.819c-2e-3 -7.616-2.661-14.087-7.993-19.414z" fill="#fff" stroke-width="33.499"/>
   </g>
  </g>
 </g>
</svg>
