<svg width="64" height="64" version="1.1" viewBox="0 0 16.933 16.933" xmlns="http://www.w3.org/2000/svg">
 <g transform="matrix(.61202 0 0 .60962 -1.3256 -1.2869)" fill="#fff" stroke-width=".43316">
  <circle cx="11.02" cy="17.945" r="2.093"/>
  <circle cx="20.981" cy="17.945" r="2.093"/>
  <path d="m29.834 18.944c0-1.432-0.961-2.637-2.273-3.012-0.176-3.418-3.004-6.146-6.464-6.146h-4.197v-2.831c0.703-0.337 1.193-1.05 1.193-1.883 0-1.155-0.937-2.093-2.093-2.093s-2.093 0.938-2.093 2.093c0 0.833 0.489 1.546 1.193 1.883v2.831h-4.197c-3.46 0-6.288 2.729-6.464 6.146-1.311 0.374-2.273 1.58-2.273 3.012 0 1.426 0.953 2.627 2.256 3.007v0.588c0 3.574 2.907 6.481 6.481 6.481h10.194c3.574 0 6.482-2.907 6.482-6.481v-0.588c1.303-0.38 2.255-1.581 2.255-3.007zm-4.055 3.595c0 2.581-2.1 4.682-4.682 4.682h-10.194c-2.581 0-4.681-2.101-4.681-4.682v-6.271c0-2.582 2.1-4.682 4.681-4.682h10.194c2.582 0 4.682 2.1 4.682 4.682z"/>
 </g>
</svg>
