<?xml version="1.0" encoding="UTF-8" standalone="no"?>
<svg
   xmlns:dc="http://purl.org/dc/elements/1.1/"
   xmlns:cc="http://creativecommons.org/ns#"
   xmlns:rdf="http://www.w3.org/1999/02/22-rdf-syntax-ns#"
   xmlns:svg="http://www.w3.org/2000/svg"
   xmlns="http://www.w3.org/2000/svg"
   xmlns:sodipodi="http://sodipodi.sourceforge.net/DTD/sodipodi-0.dtd"
   xmlns:inkscape="http://www.inkscape.org/namespaces/inkscape"
   inkscape:version="1.0beta1 (fe3e306, 2019-09-17)"
   sodipodi:docname="align-center.svg"
   id="svg921"
   xml:space="preserve"
   viewBox="0 0 18 18"
   version="1.1"
   height="18"
   width="18">
  <metadata
     id="metadata927">
    <rdf:RDF>
      <cc:Work
         rdf:about="">
        <dc:format>image/svg+xml</dc:format>
        <dc:type
           rdf:resource="http://purl.org/dc/dcmitype/StillImage" />
        <dc:title></dc:title>
      </cc:Work>
    </rdf:RDF>
  </metadata>
  <defs
     id="defs925" />
  <sodipodi:namedview
     scale-x="1"
     inkscape:current-layer="svg921"
     inkscape:window-maximized="1"
     inkscape:window-y="-8"
     inkscape:window-x="-8"
     inkscape:cy="10.000063"
     inkscape:cx="10.000063"
     inkscape:zoom="52.149674"
     units="px"
     inkscape:pagecheckerboard="true"
     showgrid="false"
     id="namedview923"
     inkscape:window-height="1377"
     inkscape:window-width="3440"
     inkscape:pageshadow="2"
     inkscape:pageopacity="0"
     guidetolerance="10"
     gridtolerance="10"
     objecttolerance="10"
     borderopacity="1"
     inkscape:document-rotation="0"
     bordercolor="#666666"
     pagecolor="#ffffff" />
  <path
     d="m 17.30714,7.9999674 h -16.615 c -0.18751,0 -0.34967,-0.049581 -0.48675,-0.14855 C 0.06846,7.7525834 0,7.6353074 0,7.4999474 v -1 c 0,-0.1355 0.068467,-0.25259 0.20539,-0.35153 0.13704,-0.098971 0.2992,-0.14842 0.48675,-0.14842 h 16.615 c 0.18762,0 0.34982,0.049445 0.4869,0.14842 0.13693,0.098916 0.20547,0.21611 0.20547,0.35153 v 1 c 0,0.13536 -0.06854,0.25264 -0.2055,0.35147 -0.13715,0.098971 -0.29939,0.14855 -0.48686,0.14855 z"
     id="path911"
     inkscape:connector-curvature="0"
     style="opacity:1;fill:#ffffff;stop-opacity:1" />
  <path
     d="m 14.40018,3.9999674 h -10.8 c -0.16247,0 -0.30328,-0.049499 -0.42208,-0.14842 C 3.05946,3.7525764 3,3.6354374 3,3.5000174 v -1 c 0,-0.13539 0.059464,-0.25253 0.1781,-0.35161 0.11877,-0.098834 0.25957,-0.14842 0.42208,-0.14842 h 10.8 c 0.16261,0 0.30318,0.049581 0.42198,0.14842 0.11867,0.098971 0.17807,0.21622 0.17807,0.35161 v 1 c 0,0.13539 -0.0594,0.25253 -0.1781,0.35153 -0.11887,0.098916 -0.25947,0.14842 -0.42195,0.14842 z"
     id="path913"
     inkscape:connector-curvature="0"
     style="opacity:1;fill:#ffffff;stop-opacity:1" />
  <path
     d="M 0.19090009,14.14849 C 0.31815182,14.04952 0.46901068,14 0.64298168,14 H 17.356977 c 0.174223,0 0.32483,0.04952 0.452118,0.14849 0.127144,0.09891 0.190792,0.21613 0.190792,0.35151 v 0.99996 c 0,0.13538 -0.06364,0.2526 -0.190828,0.35171 C 17.681663,15.95045 17.530984,16 17.356941,16 H 0.64294568 C 0.46901068,16 0.31815182,15.95045 0.19086409,15.85167 0.06372036,15.75259 0,15.63538 0,15.49996 V 14.5 c 7.0200402e-5,-0.13538 0.06374736,-0.2526 0.19090009,-0.35151 z"
     id="path915"
     inkscape:connector-curvature="0"
     style="opacity:1;fill:#ffffff;stroke-width:1;stop-opacity:1" />
  <path
     d="m 15.36314,11.999967 h -12.727 c -0.17232,0 -0.32155,-0.04955 -0.44741,-0.14853 -0.12597,-0.09889 -0.18904,-0.21611 -0.18904,-0.35153 v -0.99989 c 0,-0.13531 0.063065,-0.25264 0.18904,-0.35153 0.12583,-0.09897 0.27506,-0.1485196 0.44741,-0.1485196 h 12.727 c 0.17246,0 0.32155,0.04955 0.44755,0.1485196 0.12586,0.09889 0.18886,0.21622 0.18886,0.35153 v 0.99997 c 0,0.13539 -0.063,0.25272 -0.1889,0.35153 -0.12607,0.09897 -0.2752,0.14844 -0.44752,0.14844 z"
     id="path917"
     inkscape:connector-curvature="0"
     style="opacity:1;fill:#ffffff;stop-opacity:1" />
</svg>
