<?xml version="1.0" encoding="UTF-8" standalone="no"?>
<svg
   xmlns:dc="http://purl.org/dc/elements/1.1/"
   xmlns:cc="http://creativecommons.org/ns#"
   xmlns:rdf="http://www.w3.org/1999/02/22-rdf-syntax-ns#"
   xmlns:svg="http://www.w3.org/2000/svg"
   xmlns="http://www.w3.org/2000/svg"
   xmlns:sodipodi="http://sodipodi.sourceforge.net/DTD/sodipodi-0.dtd"
   xmlns:inkscape="http://www.inkscape.org/namespaces/inkscape"
   inkscape:version="1.0beta1 (fe3e306, 2019-09-17)"
   sodipodi:docname="align-left.svg"
   id="svg1552"
   xml:space="preserve"
   viewBox="0 0 18 18"
   version="1.1"
   height="18"
   width="18">
  <metadata
     id="metadata1558">
    <rdf:RDF>
      <cc:Work
         rdf:about="">
        <dc:format>image/svg+xml</dc:format>
        <dc:type
           rdf:resource="http://purl.org/dc/dcmitype/StillImage" />
        <dc:title></dc:title>
      </cc:Work>
    </rdf:RDF>
  </metadata>
  <defs
     id="defs1556" />
  <sodipodi:namedview
     inkscape:current-layer="svg1552"
     inkscape:window-maximized="1"
     inkscape:window-y="-8"
     inkscape:window-x="-8"
     inkscape:cy="10.000063"
     inkscape:cx="10.000063"
     inkscape:zoom="52.149674"
     units="px"
     inkscape:pagecheckerboard="true"
     showgrid="false"
     id="namedview1554"
     inkscape:window-height="1377"
     inkscape:window-width="3440"
     inkscape:pageshadow="2"
     inkscape:pageopacity="0"
     guidetolerance="10"
     gridtolerance="10"
     objecttolerance="10"
     borderopacity="1"
     inkscape:document-rotation="0"
     bordercolor="#666666"
     pagecolor="#ffffff" />
  <path
     d="m 0.69237,7.99998 h 16.615 c 0.18751,0 0.34967,-0.049581 0.48675,-0.14855 0.13693,-0.098834 0.20539,-0.21611 0.20539,-0.35147 v -1 c 0,-0.1355 -0.06847,-0.25259 -0.20539,-0.35153 -0.13704,-0.098971 -0.2992,-0.14842 -0.48675,-0.14842 h -16.615 c -0.18762,0 -0.34982,0.049445 -0.4869,0.14842 C 0.06854,6.247346 0,6.36454 0,6.49996 v 1 C 0,7.63532 0.068539,7.7526 0.2055,7.85143 0.34265,7.950401 0.50489,7.99998 0.69236,7.99998 Z"
     id="path1542"
     inkscape:connector-curvature="0"
     style="opacity:1;fill:#ffffff;stop-opacity:1" />
  <path
     d="m 0.60005,3.99998 h 10.8 c 0.16247,0 0.30328,-0.049499 0.42208,-0.14842 0.11864,-0.098971 0.1781,-0.21611 0.1781,-0.35153 v -1 c 0,-0.13539 -0.05946,-0.25253 -0.1781,-0.35161 C 11.70336,2.049586 11.56256,2 11.40005,2 h -10.8 C 0.43744,2 0.29687,2.049581 0.17807,2.14842 0.0594,2.247391 0,2.36464 0,2.50003 v 1 c 0,0.13539 0.059401,0.25253 0.1781,0.35153 0.11887,0.098916 0.25947,0.14842 0.42195,0.14842 z"
     id="path1544"
     inkscape:connector-curvature="0"
     style="opacity:1;fill:#ffffff;stop-opacity:1" />
  <path
     d="M 17.809449,14.14849 C 17.682196,14.04952 17.531336,14 17.357364,14 H 0.64326371 C 0.46903962,14 0.31843182,14.04952 0.19114329,14.14849 0.06399876,14.2474 3.5e-4,14.36462 3.5e-4,14.5 v 0.99996 c 0,0.13538 0.06364426,0.2526 0.19082929,0.35171 C 0.31857582,15.95045 0.46925563,16 0.64329972,16 H 17.3574 c 0.173936,0 0.324796,-0.04955 0.452085,-0.14833 0.127144,-0.09908 0.190865,-0.21629 0.190865,-0.35171 V 14.5 c -7e-5,-0.13538 -0.06375,-0.2526 -0.190901,-0.35151 z"
     id="path1546"
     inkscape:connector-curvature="0"
     style="opacity:1;fill:#ffffff;stroke-width:1;stop-opacity:1" />
  <path
     d="m 0.68187,11.99998 h 13.636 c 0.18463,0 0.34452,-0.04955 0.47937,-0.14853 0.13496,-0.09889 0.20254,-0.21611 0.20254,-0.35153 v -0.99989 c 0,-0.13531 -0.06757,-0.25264 -0.20254,-0.35153 -0.13481,-0.09897 -0.2947,-0.14852 -0.47937,-0.14852 h -13.636 c -0.18478,0 -0.34452,0.04955 -0.47952,0.14852 C 0.0675,10.247389 0,10.36472 0,10.50003 V 11.5 c 0,0.13539 0.0675,0.25272 0.20239,0.35153 0.13508,0.09897 0.29485,0.14844 0.47948,0.14844 z"
     id="path1548"
     inkscape:connector-curvature="0"
     style="opacity:1;fill:#ffffff;stop-opacity:1" />
</svg>
