<?xml version="1.0" encoding="UTF-8" standalone="no"?>
<!-- Generator: Adobe Illustrator 19.0.0, SVG Export Plug-In . SVG Version: 6.00 Build 0)  -->

<svg
   xmlns:dc="http://purl.org/dc/elements/1.1/"
   xmlns:cc="http://creativecommons.org/ns#"
   xmlns:rdf="http://www.w3.org/1999/02/22-rdf-syntax-ns#"
   xmlns:svg="http://www.w3.org/2000/svg"
   xmlns="http://www.w3.org/2000/svg"
   xmlns:sodipodi="http://sodipodi.sourceforge.net/DTD/sodipodi-0.dtd"
   xmlns:inkscape="http://www.inkscape.org/namespaces/inkscape"
   version="1.1"
   id="Capa_1"
   x="0px"
   y="0px"
   viewBox="0 0 24 24"
   xml:space="preserve"
   width="24"
   height="24"
   sodipodi:docname="back.svg"
   inkscape:version="0.92.1 r15371"><metadata
     id="metadata8476"><rdf:RDF><cc:Work
         rdf:about=""><dc:format>image/svg+xml</dc:format><dc:type
           rdf:resource="http://purl.org/dc/dcmitype/StillImage" /><dc:title></dc:title></cc:Work></rdf:RDF></metadata><defs
     id="defs8474" /><sodipodi:namedview
     pagecolor="#ffffff"
     bordercolor="#666666"
     borderopacity="1"
     objecttolerance="10"
     gridtolerance="10"
     guidetolerance="10"
     inkscape:pageopacity="0"
     inkscape:pageshadow="2"
     inkscape:window-width="1600"
     inkscape:window-height="900"
     id="namedview8472"
     showgrid="false"
     inkscape:pagecheckerboard="true"
     inkscape:showpageshadow="false"
     inkscape:zoom="18.826718"
     inkscape:cx="9.0280225"
     inkscape:cy="8.5475352"
     inkscape:window-x="47"
     inkscape:window-y="120"
     inkscape:window-maximized="0"
     inkscape:current-layer="Capa_1" /><g
     id="g8441"
     transform="matrix(0.0625,0,0,0.0625,0,-8)"
     style="stroke-width:16" /><g
     id="g8443"
     transform="matrix(0.0625,0,0,0.0625,0,-8)"
     style="stroke-width:16" /><g
     id="g8445"
     transform="matrix(0.0625,0,0,0.0625,0,-8)"
     style="stroke-width:16" /><g
     id="g8447"
     transform="matrix(0.0625,0,0,0.0625,0,-8)"
     style="stroke-width:16" /><g
     id="g8449"
     transform="matrix(0.0625,0,0,0.0625,0,-8)"
     style="stroke-width:16" /><g
     id="g8451"
     transform="matrix(0.0625,0,0,0.0625,0,-8)"
     style="stroke-width:16" /><g
     id="g8453"
     transform="matrix(0.0625,0,0,0.0625,0,-8)"
     style="stroke-width:16" /><g
     id="g8455"
     transform="matrix(0.0625,0,0,0.0625,0,-8)"
     style="stroke-width:16" /><g
     id="g8457"
     transform="matrix(0.0625,0,0,0.0625,0,-8)"
     style="stroke-width:16" /><g
     id="g8459"
     transform="matrix(0.0625,0,0,0.0625,0,-8)"
     style="stroke-width:16" /><g
     id="g8461"
     transform="matrix(0.0625,0,0,0.0625,0,-8)"
     style="stroke-width:16" /><g
     id="g8463"
     transform="matrix(0.0625,0,0,0.0625,0,-8)"
     style="stroke-width:16" /><g
     id="g8465"
     transform="matrix(0.0625,0,0,0.0625,0,-8)"
     style="stroke-width:16" /><g
     id="g8467"
     transform="matrix(0.0625,0,0,0.0625,0,-8)"
     style="stroke-width:16" /><g
     id="g8469"
     transform="matrix(0.0625,0,0,0.0625,0,-8)"
     style="stroke-width:16" /><g
     style="fill:#ffffff;fill-opacity:1;stroke-width:10.00055408"
     id="g86456"
     transform="matrix(0.09969096,0,0,0.10029889,1,0.93292011)"><polygon
       style="fill:#ffffff;fill-opacity:1;stroke-width:10.00055408"
       points="0,110.341 99.702,210.043 127.986,181.758 56.569,110.341 127.986,38.924 99.702,10.639 "
       id="polygon86452" /><polygon
       style="fill:#ffffff;fill-opacity:1;stroke-width:10.00055408"
       points="192.398,10.639 92.695,110.341 192.398,210.043 220.682,181.758 149.264,110.341 220.682,38.924 "
       id="polygon86454"
       transform="translate(7.614998)" /></g><g
     style="fill:#ffffff;fill-opacity:1;stroke-width:10.03100014"
     id="g86458"
     transform="matrix(0.09969096,0,0,0.09969096,1,1.0606117)" /><g
     style="fill:#ffffff;fill-opacity:1;stroke-width:10.03100014"
     id="g86460"
     transform="matrix(0.09969096,0,0,0.09969096,1,1.0606117)" /><g
     style="fill:#ffffff;fill-opacity:1;stroke-width:10.03100014"
     id="g86462"
     transform="matrix(0.09969096,0,0,0.09969096,1,1.0606117)" /><g
     style="fill:#ffffff;fill-opacity:1;stroke-width:10.03100014"
     id="g86464"
     transform="matrix(0.09969096,0,0,0.09969096,1,1.0606117)" /><g
     style="fill:#ffffff;fill-opacity:1;stroke-width:10.03100014"
     id="g86466"
     transform="matrix(0.09969096,0,0,0.09969096,1,1.0606117)" /><g
     style="fill:#ffffff;fill-opacity:1;stroke-width:10.03100014"
     id="g86468"
     transform="matrix(0.09969096,0,0,0.09969096,1,1.0606117)" /><g
     style="fill:#ffffff;fill-opacity:1;stroke-width:10.03100014"
     id="g86470"
     transform="matrix(0.09969096,0,0,0.09969096,1,1.0606117)" /><g
     style="fill:#ffffff;fill-opacity:1;stroke-width:10.03100014"
     id="g86472"
     transform="matrix(0.09969096,0,0,0.09969096,1,1.0606117)" /><g
     style="fill:#ffffff;fill-opacity:1;stroke-width:10.03100014"
     id="g86474"
     transform="matrix(0.09969096,0,0,0.09969096,1,1.0606117)" /><g
     style="fill:#ffffff;fill-opacity:1;stroke-width:10.03100014"
     id="g86476"
     transform="matrix(0.09969096,0,0,0.09969096,1,1.0606117)" /><g
     style="fill:#ffffff;fill-opacity:1;stroke-width:10.03100014"
     id="g86478"
     transform="matrix(0.09969096,0,0,0.09969096,1,1.0606117)" /><g
     style="fill:#ffffff;fill-opacity:1;stroke-width:10.03100014"
     id="g86480"
     transform="matrix(0.09969096,0,0,0.09969096,1,1.0606117)" /><g
     style="fill:#ffffff;fill-opacity:1;stroke-width:10.03100014"
     id="g86482"
     transform="matrix(0.09969096,0,0,0.09969096,1,1.0606117)" /><g
     style="fill:#ffffff;fill-opacity:1;stroke-width:10.03100014"
     id="g86484"
     transform="matrix(0.09969096,0,0,0.09969096,1,1.0606117)" /><g
     style="fill:#ffffff;fill-opacity:1;stroke-width:10.03100014"
     id="g86486"
     transform="matrix(0.09969096,0,0,0.09969096,1,1.0606117)" /></svg>