<svg width="18" height="18" version="1.1" viewBox="0 0 18 18" xml:space="preserve" xmlns="http://www.w3.org/2000/svg">
  

  

  

  
  
  
  
<g transform="matrix(.065443 0 0 .064356 2.8903 3)" fill="#fff" stroke-width="15.409">
  <path d="m148 94.812c18.332-8.126 28.671-23.362 28.671-42.752 0-17.261-6.954-31.206-20.11-40.328-10.912-7.566-26.127-11.732-42.844-11.732h-96.764v34h17v134h-17v34h90.905c14.819 0 35.992-2.245 52.705-12.94 16.241-10.393 24.476-26.161 24.476-46.868 0-23.85-13.986-41.429-37.039-47.38zm-44.884-14.812h-29.163v-46h26.096c25.961 0 36.551 6.34 36.551 21.884 0 19.932-18.208 24.116-33.484 24.116zm-29.163 35h30.838c28.537 0 40.177 7.436 40.177 25.663 0 18.14-13.987 27.337-41.572 27.337h-29.443z" fill="#fff" stroke-width="15.409"/>
  
  
  
  
  
  
  
  
  
  
  
  
  
  
  
</g>
</svg>
