<svg width="18" height="18" version="1.1" viewBox="0 0 18 18" xml:space="preserve" xmlns="http://www.w3.org/2000/svg"><g fill="#fff"><g>
  
  
  
  <circle transform="matrix(.74251 -.66984 -.66984 -.74251 0 0)" cx="5.1089" cy="-16.73" r="1"/>
  <circle transform="matrix(.74251 -.66984 -.66984 -.74251 0 0)" cx="2.8813" cy="-14.721" r="1"/>
  <circle transform="matrix(.74251 -.66984 -.66984 -.74251 0 0)" cx=".65431" cy="-12.711" r="1"/>
  <circle transform="matrix(.74251 -.66984 -.66984 -.74251 0 0)" cx="-1.5737" cy="-10.702" r="1"/>
  </g><path d="m2.0001 8.947e-5h14l-7 5.9999-3.5-3z" stroke-width=".30777"/>
  <circle transform="matrix(.74251 -.66984 -.66984 -.74251 0 0)" cx="-3.8007" cy="-8.6923" r="1"/>
  <path d="m2.0001 18h14l-7-6-3.5 3z" stroke-width=".30777"/>
</g></svg>
