<?xml version="1.0" encoding="UTF-8" standalone="no"?>
<!-- Generator: Adobe Illustrator 19.0.0, SVG Export Plug-In . SVG Version: 6.00 Build 0)  -->

<svg
   xmlns:dc="http://purl.org/dc/elements/1.1/"
   xmlns:cc="http://creativecommons.org/ns#"
   xmlns:rdf="http://www.w3.org/1999/02/22-rdf-syntax-ns#"
   xmlns:svg="http://www.w3.org/2000/svg"
   xmlns="http://www.w3.org/2000/svg"
   xmlns:sodipodi="http://sodipodi.sourceforge.net/DTD/sodipodi-0.dtd"
   xmlns:inkscape="http://www.inkscape.org/namespaces/inkscape"
   version="1.1"
   id="Capa_1"
   x="0px"
   y="0px"
   viewBox="0 0 24 24"
   xml:space="preserve"
   width="24"
   height="24"
   sodipodi:docname="home.svg"
   inkscape:version="0.92.4 (5da689c313, 2019-01-14)"><metadata
     id="metadata8476"><rdf:RDF><cc:Work
         rdf:about=""><dc:format>image/svg+xml</dc:format><dc:type
           rdf:resource="http://purl.org/dc/dcmitype/StillImage" /><dc:title></dc:title></cc:Work></rdf:RDF></metadata><defs
     id="defs8474" /><sodipodi:namedview
     pagecolor="#ffffff"
     bordercolor="#666666"
     borderopacity="1"
     objecttolerance="10"
     gridtolerance="10"
     guidetolerance="10"
     inkscape:pageopacity="0"
     inkscape:pageshadow="2"
     inkscape:window-width="1840"
     inkscape:window-height="988"
     id="namedview8472"
     showgrid="false"
     inkscape:pagecheckerboard="true"
     inkscape:showpageshadow="false"
     inkscape:zoom="18.826718"
     inkscape:cx="-4.2509781"
     inkscape:cy="6.7096643"
     inkscape:window-x="116"
     inkscape:window-y="250"
     inkscape:window-maximized="0"
     inkscape:current-layer="Capa_1" /><g
     id="g8441"
     transform="matrix(0.0625,0,0,0.0625,0,-8)"
     style="stroke-width:16" /><g
     id="g8443"
     transform="matrix(0.0625,0,0,0.0625,0,-8)"
     style="stroke-width:16" /><g
     id="g8445"
     transform="matrix(0.0625,0,0,0.0625,0,-8)"
     style="stroke-width:16" /><g
     id="g8447"
     transform="matrix(0.0625,0,0,0.0625,0,-8)"
     style="stroke-width:16" /><g
     id="g8449"
     transform="matrix(0.0625,0,0,0.0625,0,-8)"
     style="stroke-width:16" /><g
     id="g8451"
     transform="matrix(0.0625,0,0,0.0625,0,-8)"
     style="stroke-width:16" /><g
     id="g8453"
     transform="matrix(0.0625,0,0,0.0625,0,-8)"
     style="stroke-width:16" /><g
     id="g8455"
     transform="matrix(0.0625,0,0,0.0625,0,-8)"
     style="stroke-width:16" /><g
     id="g8457"
     transform="matrix(0.0625,0,0,0.0625,0,-8)"
     style="stroke-width:16" /><g
     id="g8459"
     transform="matrix(0.0625,0,0,0.0625,0,-8)"
     style="stroke-width:16" /><g
     id="g8461"
     transform="matrix(0.0625,0,0,0.0625,0,-8)"
     style="stroke-width:16" /><g
     id="g8463"
     transform="matrix(0.0625,0,0,0.0625,0,-8)"
     style="stroke-width:16" /><g
     id="g8465"
     transform="matrix(0.0625,0,0,0.0625,0,-8)"
     style="stroke-width:16" /><g
     id="g8467"
     transform="matrix(0.0625,0,0,0.0625,0,-8)"
     style="stroke-width:16" /><g
     id="g8469"
     transform="matrix(0.0625,0,0,0.0625,0,-8)"
     style="stroke-width:16" /><path
     id="path8442-7"
     style="fill:#ffffff;fill-opacity:1;stroke-width:0.03263975"
     d="m 5.3333333,13.058823 v 7.721912 C 5.3333333,21.453771 5.8311093,22 6.4444443,22 H 9.592638 c 0.306667,0 0.555555,-0.273113 0.555555,-0.609632 v -5.283384 c 0,-0.111474 0.08287,-0.203309 0.18514,-0.203309 h 3.333332 c 0.101456,0 0.185142,0.09184 0.185142,0.203309 v 5.283384 C 13.851807,21.726887 14.100693,22 14.407362,22 h 3.148194 c 0.613335,0 1.11111,-0.546229 1.11111,-1.219265 V 13.058823 Z M 21.682464,11.394331 12.432434,3.1614115 c -0.241547,-0.2152165 -0.623321,-0.2152165 -0.86487,0 L 2.30838,11.402831 C 2.1124573,11.584753 2,11.835391 2,12.091552 c 0,0.533153 0.4675291,0.967271 1.0417173,0.967271 H 20.958283 C 21.532471,13.058823 22,12.624705 22,12.091552 22,11.835391 21.887543,11.584753 21.682464,11.394331 Z"
     inkscape:connector-curvature="0" /></svg>