<?xml version="1.0" encoding="UTF-8" standalone="no"?>
<!-- Generator: Adobe Illustrator 19.0.0, SVG Export Plug-In . SVG Version: 6.00 Build 0)  -->

<svg
   xmlns:dc="http://purl.org/dc/elements/1.1/"
   xmlns:cc="http://creativecommons.org/ns#"
   xmlns:rdf="http://www.w3.org/1999/02/22-rdf-syntax-ns#"
   xmlns:svg="http://www.w3.org/2000/svg"
   xmlns="http://www.w3.org/2000/svg"
   xmlns:sodipodi="http://sodipodi.sourceforge.net/DTD/sodipodi-0.dtd"
   xmlns:inkscape="http://www.inkscape.org/namespaces/inkscape"
   version="1.1"
   id="Capa_1"
   x="0px"
   y="0px"
   viewBox="0 0 24 24"
   xml:space="preserve"
   width="24"
   height="24"
   sodipodi:docname="home.svg"
   inkscape:version="0.92.1 r15371"><metadata
     id="metadata8476"><rdf:RDF><cc:Work
         rdf:about=""><dc:format>image/svg+xml</dc:format><dc:type
           rdf:resource="http://purl.org/dc/dcmitype/StillImage" /><dc:title /></cc:Work></rdf:RDF></metadata><defs
     id="defs8474" /><sodipodi:namedview
     pagecolor="#ffffff"
     bordercolor="#666666"
     borderopacity="1"
     objecttolerance="10"
     gridtolerance="10"
     guidetolerance="10"
     inkscape:pageopacity="0"
     inkscape:pageshadow="2"
     inkscape:window-width="1600"
     inkscape:window-height="900"
     id="namedview8472"
     showgrid="false"
     inkscape:pagecheckerboard="true"
     inkscape:showpageshadow="false"
     inkscape:zoom="18.826718"
     inkscape:cx="9.0280225"
     inkscape:cy="4.5850242"
     inkscape:window-x="47"
     inkscape:window-y="120"
     inkscape:window-maximized="0"
     inkscape:current-layer="Capa_1" /><g
     id="g8441"
     transform="matrix(0.0625,0,0,0.0625,0,-8)"
     style="stroke-width:16" /><g
     id="g8443"
     transform="matrix(0.0625,0,0,0.0625,0,-8)"
     style="stroke-width:16" /><g
     id="g8445"
     transform="matrix(0.0625,0,0,0.0625,0,-8)"
     style="stroke-width:16" /><g
     id="g8447"
     transform="matrix(0.0625,0,0,0.0625,0,-8)"
     style="stroke-width:16" /><g
     id="g8449"
     transform="matrix(0.0625,0,0,0.0625,0,-8)"
     style="stroke-width:16" /><g
     id="g8451"
     transform="matrix(0.0625,0,0,0.0625,0,-8)"
     style="stroke-width:16" /><g
     id="g8453"
     transform="matrix(0.0625,0,0,0.0625,0,-8)"
     style="stroke-width:16" /><g
     id="g8455"
     transform="matrix(0.0625,0,0,0.0625,0,-8)"
     style="stroke-width:16" /><g
     id="g8457"
     transform="matrix(0.0625,0,0,0.0625,0,-8)"
     style="stroke-width:16" /><g
     id="g8459"
     transform="matrix(0.0625,0,0,0.0625,0,-8)"
     style="stroke-width:16" /><g
     id="g8461"
     transform="matrix(0.0625,0,0,0.0625,0,-8)"
     style="stroke-width:16" /><g
     id="g8463"
     transform="matrix(0.0625,0,0,0.0625,0,-8)"
     style="stroke-width:16" /><g
     id="g8465"
     transform="matrix(0.0625,0,0,0.0625,0,-8)"
     style="stroke-width:16" /><g
     id="g8467"
     transform="matrix(0.0625,0,0,0.0625,0,-8)"
     style="stroke-width:16" /><g
     id="g8469"
     transform="matrix(0.0625,0,0,0.0625,0,-8)"
     style="stroke-width:16" /><path
     id="path8442"
     d="M 20.714218,10.510718 12.389191,3.1444216 c -0.217393,-0.1925621 -0.560989,-0.1925621 -0.778383,0 L 3.277542,10.518323 C 3.1012116,10.681095 3,10.90535 3,11.134547 3,11.611579 3.4207762,12 3.9375456,12 H 20.062455 C 20.579224,12 21,11.611579 21,11.134547 21,10.90535 20.898789,10.681095 20.714218,10.510718 Z"
     inkscape:connector-curvature="0"
     style="fill:#ffffff;fill-opacity:1;stroke-width:0.03377753"
     sodipodi:nodetypes="ccccsccsc" /><path
     id="path8442-7"
     d="m 6,12 v 6.909079 C 6,19.511269 6.4479984,20 6.9999999,20 h 2.8333743 c 0.2760008,0 0.4999998,-0.244364 0.4999998,-0.54546 v -4.727238 c 0,-0.09974 0.07458,-0.181908 0.166626,-0.181908 h 2.999999 c 0.09131,0 0.166627,0.08217 0.166627,0.181908 v 4.727238 c 0,0.301096 0.223998,0.54546 0.5,0.54546 h 2.833375 C 17.552002,20 18,19.511269 18,18.909079 V 12 Z"
     inkscape:connector-curvature="0"
     style="fill:#ffffff;fill-opacity:1;stroke-width:0.03263975"
     sodipodi:nodetypes="csssssssssssscc" /></svg>