<?xml version="1.0" encoding="UTF-8" standalone="no"?>
<svg
   xmlns:dc="http://purl.org/dc/elements/1.1/"
   xmlns:cc="http://creativecommons.org/ns#"
   xmlns:rdf="http://www.w3.org/1999/02/22-rdf-syntax-ns#"
   xmlns:svg="http://www.w3.org/2000/svg"
   xmlns="http://www.w3.org/2000/svg"
   xmlns:sodipodi="http://sodipodi.sourceforge.net/DTD/sodipodi-0.dtd"
   xmlns:inkscape="http://www.inkscape.org/namespaces/inkscape"
   inkscape:version="1.0beta1 (fe3e306, 2019-09-17)"
   sodipodi:docname="knob.svg"
   height="18"
   width="11"
   xml:space="preserve"
   viewBox="0 0 11 18"
   y="0px"
   x="0px"
   id="Capa_1"
   version="1.1">
  <metadata
     id="metadata8476">
    <rdf:RDF>
      <cc:Work
         rdf:about="">
        <dc:format>image/svg+xml</dc:format>
        <dc:type
           rdf:resource="http://purl.org/dc/dcmitype/StillImage" />
        <dc:title></dc:title>
      </cc:Work>
    </rdf:RDF>
  </metadata>
  <defs
     id="defs8474" />
  <sodipodi:namedview
     inkscape:document-rotation="0"
     inkscape:current-layer="Capa_1"
     inkscape:window-maximized="1"
     inkscape:window-y="-8"
     inkscape:window-x="-8"
     inkscape:cy="7.1768217"
     inkscape:cx="9.1935952"
     inkscape:zoom="31.678384"
     inkscape:showpageshadow="false"
     inkscape:pagecheckerboard="true"
     showgrid="false"
     id="namedview8472"
     inkscape:window-height="1377"
     inkscape:window-width="3440"
     inkscape:pageshadow="2"
     inkscape:pageopacity="0"
     guidetolerance="10"
     gridtolerance="10"
     objecttolerance="10"
     borderopacity="1"
     bordercolor="#666666"
     pagecolor="#ffffff" />
  <g
     style="stroke-width:16"
     transform="matrix(0.0625,0,0,0.0625,0,-8)"
     id="g8441" />
  <g
     style="stroke-width:16"
     transform="matrix(0.0625,0,0,0.0625,0,-8)"
     id="g8443" />
  <g
     style="stroke-width:16"
     transform="matrix(0.0625,0,0,0.0625,0,-8)"
     id="g8445" />
  <g
     style="stroke-width:16"
     transform="matrix(0.0625,0,0,0.0625,0,-8)"
     id="g8447" />
  <g
     style="stroke-width:16"
     transform="matrix(0.0625,0,0,0.0625,0,-8)"
     id="g8449" />
  <g
     style="stroke-width:16"
     transform="matrix(0.0625,0,0,0.0625,0,-8)"
     id="g8451" />
  <g
     style="stroke-width:16"
     transform="matrix(0.0625,0,0,0.0625,0,-8)"
     id="g8453" />
  <g
     style="stroke-width:16"
     transform="matrix(0.0625,0,0,0.0625,0,-8)"
     id="g8455" />
  <g
     style="stroke-width:16"
     transform="matrix(0.0625,0,0,0.0625,0,-8)"
     id="g8457" />
  <g
     style="stroke-width:16"
     transform="matrix(0.0625,0,0,0.0625,0,-8)"
     id="g8459" />
  <g
     style="stroke-width:16"
     transform="matrix(0.0625,0,0,0.0625,0,-8)"
     id="g8461" />
  <g
     style="stroke-width:16"
     transform="matrix(0.0625,0,0,0.0625,0,-8)"
     id="g8463" />
  <g
     style="stroke-width:16"
     transform="matrix(0.0625,0,0,0.0625,0,-8)"
     id="g8465" />
  <g
     style="stroke-width:16"
     transform="matrix(0.0625,0,0,0.0625,0,-8)"
     id="g8467" />
  <g
     style="stroke-width:16"
     transform="matrix(0.0625,0,0,0.0625,0,-8)"
     id="g8469" />
  <g
     transform="matrix(0.09969096,0,0,0.09969096,1,1.0606117)"
     id="g86458"
     style="fill:#ffffff;fill-opacity:1;stroke-width:10.031" />
  <g
     transform="matrix(0.09969096,0,0,0.09969096,1,1.0606117)"
     id="g86460"
     style="fill:#ffffff;fill-opacity:1;stroke-width:10.031" />
  <g
     transform="matrix(0.09969096,0,0,0.09969096,1,1.0606117)"
     id="g86462"
     style="fill:#ffffff;fill-opacity:1;stroke-width:10.031" />
  <g
     transform="matrix(0.09969096,0,0,0.09969096,1,1.0606117)"
     id="g86464"
     style="fill:#ffffff;fill-opacity:1;stroke-width:10.031" />
  <g
     transform="matrix(0.09969096,0,0,0.09969096,1,1.0606117)"
     id="g86466"
     style="fill:#ffffff;fill-opacity:1;stroke-width:10.031" />
  <g
     transform="matrix(0.09969096,0,0,0.09969096,1,1.0606117)"
     id="g86468"
     style="fill:#ffffff;fill-opacity:1;stroke-width:10.031" />
  <g
     transform="matrix(0.09969096,0,0,0.09969096,1,1.0606117)"
     id="g86470"
     style="fill:#ffffff;fill-opacity:1;stroke-width:10.031" />
  <g
     transform="matrix(0.09969096,0,0,0.09969096,1,1.0606117)"
     id="g86472"
     style="fill:#ffffff;fill-opacity:1;stroke-width:10.031" />
  <g
     transform="matrix(0.09969096,0,0,0.09969096,1,1.0606117)"
     id="g86474"
     style="fill:#ffffff;fill-opacity:1;stroke-width:10.031" />
  <g
     transform="matrix(0.09969096,0,0,0.09969096,1,1.0606117)"
     id="g86476"
     style="fill:#ffffff;fill-opacity:1;stroke-width:10.031" />
  <g
     transform="matrix(0.09969096,0,0,0.09969096,1,1.0606117)"
     id="g86478"
     style="fill:#ffffff;fill-opacity:1;stroke-width:10.031" />
  <g
     transform="matrix(0.09969096,0,0,0.09969096,1,1.0606117)"
     id="g86480"
     style="fill:#ffffff;fill-opacity:1;stroke-width:10.031" />
  <g
     transform="matrix(0.09969096,0,0,0.09969096,1,1.0606117)"
     id="g86482"
     style="fill:#ffffff;fill-opacity:1;stroke-width:10.031" />
  <g
     transform="matrix(0.09969096,0,0,0.09969096,1,1.0606117)"
     id="g86484"
     style="fill:#ffffff;fill-opacity:1;stroke-width:10.031" />
  <g
     transform="matrix(0.09969096,0,0,0.09969096,1,1.0606117)"
     id="g86486"
     style="fill:#ffffff;fill-opacity:1;stroke-width:10.031" />
  <g
     style="stroke-width:36.6416"
     transform="matrix(0,0.02996645,-0.02691701,0,12.12143,3.201421e-6)"
     id="g1019">
    <g
       style="stroke-width:36.6416"
       id="g962">
	<g
   style="stroke-width:36.6416"
   id="g960">
		<path
   sodipodi:nodetypes="cccccccccssc"
   style="stroke-width:36.6416"
   inkscape:connector-curvature="0"
   d="M 533.93034,43.222994 204.272,41.674003 c -7.2,0 -13.952,2.78 -19.016,7.844 L 7.844,226.914 C 2.76,231.998 -0.02,238.77 0,245.974 c -0.02,7.244 2.76,14.02 7.844,19.096 l 177.412,177.412 c 5.064,5.06 11.812,7.844 19.016,7.844 l 329.65834,2e-5 c 35.89641,0 66.75385,-33.68168 66.75385,-74.30246 v -260.0586 c 0,-35.92973 -30.85745,-72.741966 -66.75385,-72.741966 z"
   fill="#FFFFFF"
   id="path958" />

	</g>

</g>
    <g
       style="stroke-width:36.6416"
       id="g964">
</g>
    <g
       style="stroke-width:36.6416"
       id="g966">
</g>
    <g
       style="stroke-width:36.6416"
       id="g968">
</g>
    <g
       style="stroke-width:36.6416"
       id="g970">
</g>
    <g
       style="stroke-width:36.6416"
       id="g972">
</g>
    <g
       style="stroke-width:36.6416"
       id="g974">
</g>
    <g
       style="stroke-width:36.6416"
       id="g976">
</g>
    <g
       style="stroke-width:36.6416"
       id="g978">
</g>
    <g
       style="stroke-width:36.6416"
       id="g980">
</g>
    <g
       style="stroke-width:36.6416"
       id="g982">
</g>
    <g
       style="stroke-width:36.6416"
       id="g984">
</g>
    <g
       style="stroke-width:36.6416"
       id="g986">
</g>
    <g
       style="stroke-width:36.6416"
       id="g988">
</g>
    <g
       style="stroke-width:36.6416"
       id="g990">
</g>
    <g
       style="stroke-width:36.6416"
       id="g992">
</g>
  </g>
</svg>
