<svg width="24" height="24" version="1.1" viewBox="0 0 6.35 6.35" xmlns="http://www.w3.org/2000/svg">
 <g transform="scale(.012451)" fill="#fff" stroke-width="21.25">
  <g fill="#fff" stroke-width="21.25">
   <g id="language" fill="#fff" stroke-width="21.25">
    <path d="m255 0c-140.25 0-255 114.75-255 255s114.75 255 255 255 255-114.75 255-255-114.75-255-255-255zm175.95 153h-73.95c-7.65-33.15-20.4-61.2-35.7-91.8 45.9 17.85 86.7 48.45 109.65 91.8zm-175.95-102c20.4 30.6 38.25 63.75 48.45 102h-96.9c10.2-35.7 28.05-71.4 48.45-102zm-196.35 255c-5.1-15.3-7.65-33.15-7.65-51s2.55-35.7 7.65-51h86.7c-2.55 17.85-2.55 33.15-2.55 51s2.55 33.15 2.55 51zm20.4 51h73.95c7.65 33.15 20.4 61.2 35.7 91.8-45.9-17.85-86.7-48.45-109.65-91.8zm73.95-204h-73.95c25.5-43.35 63.75-73.95 109.65-91.8-15.3 30.6-28.05 58.65-35.7 91.8zm102 306c-20.4-30.6-38.25-63.75-48.45-102h96.9c-10.2 35.7-28.05 71.4-48.45 102zm58.65-153h-117.3c-2.55-17.85-5.1-33.15-5.1-51s2.55-33.15 5.1-51h119.85c2.55 17.85 5.1 33.15 5.1 51s-5.1 33.15-7.65 51zm7.65 142.8c15.3-28.05 28.05-58.649 35.7-91.8h73.95c-22.95 43.35-63.75 73.95-109.65 91.8zm45.9-142.8c2.55-17.85 2.55-33.15 2.55-51s-2.55-33.15-2.55-51h86.7c5.1 15.3 7.649 33.15 7.649 51s-2.55 35.7-7.649 51z" fill="#fff" stroke-width="21.25"/>
   </g>
  </g>
 </g>
</svg>
