<?xml version="1.0" encoding="UTF-8" standalone="no"?>
<svg
   xmlns:dc="http://purl.org/dc/elements/1.1/"
   xmlns:cc="http://creativecommons.org/ns#"
   xmlns:rdf="http://www.w3.org/1999/02/22-rdf-syntax-ns#"
   xmlns:svg="http://www.w3.org/2000/svg"
   xmlns="http://www.w3.org/2000/svg"
   xmlns:sodipodi="http://sodipodi.sourceforge.net/DTD/sodipodi-0.dtd"
   xmlns:inkscape="http://www.inkscape.org/namespaces/inkscape"
   width="18"
   height="18"
   version="1.1"
   viewBox="0 0 18 18"
   xml:space="preserve"
   id="svg4922"
   sodipodi:docname="lasso-polygon.svg"
   inkscape:version="0.92.4 (5da689c313, 2019-01-14)"><metadata
     id="metadata4928"><rdf:RDF><cc:Work
         rdf:about=""><dc:format>image/svg+xml</dc:format><dc:type
           rdf:resource="http://purl.org/dc/dcmitype/StillImage" /><dc:title></dc:title></cc:Work></rdf:RDF></metadata><defs
     id="defs4926" /><sodipodi:namedview
     pagecolor="#ffffff"
     bordercolor="#666666"
     borderopacity="1"
     objecttolerance="10"
     gridtolerance="10"
     guidetolerance="10"
     inkscape:pageopacity="0"
     inkscape:pageshadow="2"
     inkscape:window-width="1718"
     inkscape:window-height="1368"
     id="namedview4924"
     showgrid="false"
     inkscape:pagecheckerboard="true"
     inkscape:zoom="16.777778"
     inkscape:cx="10.460265"
     inkscape:cy="18.571293"
     inkscape:window-x="-7"
     inkscape:window-y="0"
     inkscape:window-maximized="0"
     inkscape:current-layer="svg4922" /><g
     style="stroke-width:28.85241699"
     id="g4936"
     transform="matrix(0.0346679,0,0,0.03465038,1.2976024,1.9887698)">
</g><g
     style="stroke-width:28.85241699"
     id="g4938"
     transform="matrix(0.0346679,0,0,0.03465038,1.2976024,1.9887698)">
</g><g
     style="stroke-width:28.85241699"
     id="g4940"
     transform="matrix(0.0346679,0,0,0.03465038,1.2976024,1.9887698)">
</g><g
     style="stroke-width:28.85241699"
     id="g4942"
     transform="matrix(0.0346679,0,0,0.03465038,1.2976024,1.9887698)">
</g><g
     style="stroke-width:28.85241699"
     id="g4944"
     transform="matrix(0.0346679,0,0,0.03465038,1.2976024,1.9887698)">
</g><g
     style="stroke-width:28.85241699"
     id="g4946"
     transform="matrix(0.0346679,0,0,0.03465038,1.2976024,1.9887698)">
</g><g
     style="stroke-width:28.85241699"
     id="g4948"
     transform="matrix(0.0346679,0,0,0.03465038,1.2976024,1.9887698)">
</g><g
     style="stroke-width:28.85241699"
     id="g4950"
     transform="matrix(0.0346679,0,0,0.03465038,1.2976024,1.9887698)">
</g><g
     style="stroke-width:28.85241699"
     id="g4952"
     transform="matrix(0.0346679,0,0,0.03465038,1.2976024,1.9887698)">
</g><g
     style="stroke-width:28.85241699"
     id="g4954"
     transform="matrix(0.0346679,0,0,0.03465038,1.2976024,1.9887698)">
</g><g
     style="stroke-width:28.85241699"
     id="g4956"
     transform="matrix(0.0346679,0,0,0.03465038,1.2976024,1.9887698)">
</g><g
     style="stroke-width:28.85241699"
     id="g4958"
     transform="matrix(0.0346679,0,0,0.03465038,1.2976024,1.9887698)">
</g><g
     style="stroke-width:28.85241699"
     id="g4960"
     transform="matrix(0.0346679,0,0,0.03465038,1.2976024,1.9887698)">
</g><g
     style="stroke-width:28.85241699"
     id="g4962"
     transform="matrix(0.0346679,0,0,0.03465038,1.2976024,1.9887698)">
</g><g
     style="stroke-width:28.85241699"
     id="g4964"
     transform="matrix(0.0346679,0,0,0.03465038,1.2976024,1.9887698)">
</g><circle
     style="opacity:1;fill:none;fill-opacity:1;stroke:#ffffff;stroke-width:1.79999995;stroke-linecap:butt;stroke-linejoin:miter;stroke-miterlimit:4;stroke-dasharray:none;stroke-dashoffset:6.80541754;stroke-opacity:1;paint-order:stroke fill markers"
     id="path5109"
     cx="4.5"
     cy="12.500001"
     r="1.6" /><path
     style="fill:none;stroke:#ffffff;stroke-width:2;stroke-linecap:round;stroke-linejoin:round;stroke-miterlimit:4;stroke-dasharray:none;stroke-opacity:1"
     d="M 6.4172185,12.470199 17,14 15,2 9,6 1,2 4,9.9999996"
     id="path5111"
     inkscape:connector-curvature="0"
     sodipodi:nodetypes="cccccc" /><path
     style="fill:none;stroke:#ffffff;stroke-width:2;stroke-linecap:round;stroke-linejoin:round;stroke-miterlimit:4;stroke-dasharray:none;stroke-opacity:1"
     d="m 5.4406611,14.853082 0.5316268,1.445834"
     id="path5113"
     inkscape:connector-curvature="0" /></svg>