<?xml version="1.0" encoding="UTF-8" standalone="no"?>
<svg
   xmlns:dc="http://purl.org/dc/elements/1.1/"
   xmlns:cc="http://creativecommons.org/ns#"
   xmlns:rdf="http://www.w3.org/1999/02/22-rdf-syntax-ns#"
   xmlns:svg="http://www.w3.org/2000/svg"
   xmlns="http://www.w3.org/2000/svg"
   xmlns:sodipodi="http://sodipodi.sourceforge.net/DTD/sodipodi-0.dtd"
   xmlns:inkscape="http://www.inkscape.org/namespaces/inkscape"
   width="18"
   height="18"
   version="1.1"
   viewBox="0 0 18 18"
   xml:space="preserve"
   id="svg4832"
   sodipodi:docname="lasso-magnet.svg"
   inkscape:version="0.92.4 (5da689c313, 2019-01-14)"><metadata
     id="metadata4838"><rdf:RDF><cc:Work
         rdf:about=""><dc:format>image/svg+xml</dc:format><dc:type
           rdf:resource="http://purl.org/dc/dcmitype/StillImage" /><dc:title></dc:title></cc:Work></rdf:RDF></metadata><defs
     id="defs4836" /><sodipodi:namedview
     pagecolor="#ffffff"
     bordercolor="#666666"
     borderopacity="1"
     objecttolerance="10"
     gridtolerance="10"
     guidetolerance="10"
     inkscape:pageopacity="0"
     inkscape:pageshadow="2"
     inkscape:window-width="3200"
     inkscape:window-height="1675"
     id="namedview4834"
     showgrid="false"
     inkscape:pagecheckerboard="true"
     inkscape:zoom="27.459313"
     inkscape:cx="15.332077"
     inkscape:cy="10.518646"
     inkscape:window-x="-13"
     inkscape:window-y="-13"
     inkscape:window-maximized="1"
     inkscape:current-layer="svg4832" /><g
     id="g5022"
     transform="translate(-0.91049423,-0.31228963)"><g
       transform="matrix(0.0346679,0,0,0.03465038,1.2976024,1.9887698)"
       id="g4936"
       style="stroke-width:28.85241699">
</g><g
       transform="matrix(0.0346679,0,0,0.03465038,1.2976024,1.9887698)"
       id="g4938"
       style="stroke-width:28.85241699">
</g><g
       transform="matrix(0.0346679,0,0,0.03465038,1.2976024,1.9887698)"
       id="g4940"
       style="stroke-width:28.85241699">
</g><g
       transform="matrix(0.0346679,0,0,0.03465038,1.2976024,1.9887698)"
       id="g4942"
       style="stroke-width:28.85241699">
</g><g
       transform="matrix(0.0346679,0,0,0.03465038,1.2976024,1.9887698)"
       id="g4944"
       style="stroke-width:28.85241699">
</g><g
       transform="matrix(0.0346679,0,0,0.03465038,1.2976024,1.9887698)"
       id="g4946"
       style="stroke-width:28.85241699">
</g><g
       transform="matrix(0.0346679,0,0,0.03465038,1.2976024,1.9887698)"
       id="g4948"
       style="stroke-width:28.85241699">
</g><g
       transform="matrix(0.0346679,0,0,0.03465038,1.2976024,1.9887698)"
       id="g4950"
       style="stroke-width:28.85241699">
</g><g
       transform="matrix(0.0346679,0,0,0.03465038,1.2976024,1.9887698)"
       id="g4952"
       style="stroke-width:28.85241699">
</g><g
       transform="matrix(0.0346679,0,0,0.03465038,1.2976024,1.9887698)"
       id="g4954"
       style="stroke-width:28.85241699">
</g><g
       transform="matrix(0.0346679,0,0,0.03465038,1.2976024,1.9887698)"
       id="g4956"
       style="stroke-width:28.85241699">
</g><g
       transform="matrix(0.0346679,0,0,0.03465038,1.2976024,1.9887698)"
       id="g4958"
       style="stroke-width:28.85241699">
</g><g
       transform="matrix(0.0346679,0,0,0.03465038,1.2976024,1.9887698)"
       id="g4960"
       style="stroke-width:28.85241699">
</g><g
       transform="matrix(0.0346679,0,0,0.03465038,1.2976024,1.9887698)"
       id="g4962"
       style="stroke-width:28.85241699">
</g><g
       transform="matrix(0.0346679,0,0,0.03465038,1.2976024,1.9887698)"
       id="g4964"
       style="stroke-width:28.85241699">
</g><circle
       r="1.6"
       cy="12.500001"
       cx="4.5"
       id="path5109"
       style="opacity:1;fill:none;fill-opacity:1;stroke:#ffffff;stroke-width:1.79999995;stroke-linecap:butt;stroke-linejoin:miter;stroke-miterlimit:4;stroke-dasharray:none;stroke-dashoffset:6.80541754;stroke-opacity:1;paint-order:stroke fill markers" /><path
       sodipodi:nodetypes="ccccc"
       inkscape:connector-curvature="0"
       id="path5111"
       d="m 5.9104942,11.31229 4,-3.0000004 7.9999998,-4 L 1.9104379,2.3277576 4,9.9999996"
       style="fill:none;stroke:#ffffff;stroke-width:2;stroke-linecap:round;stroke-linejoin:round;stroke-miterlimit:4;stroke-dasharray:none;stroke-opacity:1" /><path
       inkscape:connector-curvature="0"
       id="path5113"
       d="m 5.4406611,14.853082 0.5316268,1.445834"
       style="fill:none;stroke:#ffffff;stroke-width:2;stroke-linecap:round;stroke-linejoin:round;stroke-miterlimit:4;stroke-dasharray:none;stroke-opacity:1" /></g><path
     id="path4842"
     d="m 15.443899,12.387338 c 0.0793,0.0793 0.122932,0.184704 0.122932,0.296628 v 1.434826 c 0,0.157183 -0.06136,0.304376 -0.172268,0.415484 -0.110905,0.111108 -0.258302,0.172065 -0.415077,0.172065 l -1.38814,-0.0021 -1.608726,-0.0025 L 10,14.699141 V 17 h 2.853138 2.545502 c 0.375118,0 0.73678,-0.08114 1.068474,-0.230983 0.239953,-0.108457 0.462985,-0.25402 0.663388,-0.433628 0.03588,-0.03221 0.07299,-0.06341 0.107438,-0.09765 C 17.729468,15.746417 18,15.093018 18,14.398234 v -1.622591 c 0,-0.739634 -0.288269,-1.435029 -0.811192,-1.957952 -0.522922,-0.523062 -1.218521,-0.811128 -1.958156,-0.811128 h -2.377309 -2.853139 v 2.264774 l 5.147066,-0.0067 c 0.111924,2.04e-4 0.217323,0.04403 0.296629,0.122729 z"
     inkscape:connector-curvature="0"
     style="fill:#ffffff;fill-opacity:1;stroke-width:0.99999994"
     sodipodi:nodetypes="csscccccccscccsscscccccc" /></svg>