<svg width="18" height="18" version="1.1" viewBox="0 0 18 18" xml:space="preserve" xmlns="http://www.w3.org/2000/svg"><g transform="matrix(.034668 0 0 .03465 1.1765 1.7642)" stroke-width="28.852">
	<g stroke-width="28.852">
		<path transform="matrix(28.845 0 0 28.86 -37.43 -57.395)" d="m9.1211 3.2246c-2.4072 0-4.6362 0.58988-6.2812 1.5996-1.645 1.0097-2.7188 2.4631-2.7188 4.1523 0 1.4244 0.80854 2.7371 2.1836 3.7578-0.00137 0.03378-0.00391 0.06694-0.00391 0.10156 0 1.1795 0.77656 2.1524 1.8262 2.5 0.3328 1.0803 1.2897 1.8887 2.4551 1.8887 0.51596 0 0.93359-0.43128 0.93359-0.94922 0-0.51794-0.4185-0.94727-0.93359-0.94727-0.17991 0-0.29908-0.13546-0.42773-0.24805 0.25689-0.15012 0.50695-0.30832 0.70117-0.53906 0.73693 0.11958 1.4938 0.18945 2.2656 0.18945 2.4071 0 4.6362-0.59134 6.2812-1.6016 1.6451-1.0102 2.7188-2.4631 2.7188-4.1523-1.5e-5 -1.69-1.0754-3.1428-2.7207-4.1523-1.6453-1.0095-3.8733-1.5996-6.2793-1.5996zm0 1.8965c1.986 0 3.7947 0.46874 5.0879 1.1934 1.2932 0.72462 2.0449 1.6846 2.0449 2.6621 0 0.97832-0.75142 1.9392-2.0449 2.6641-1.2935 0.72491-3.1031 1.1934-5.0879 1.1934-0.57913 0-1.147-0.04844-1.7012-0.125-0.08483-1.3889-1.1294-2.5371-2.5117-2.5371-0.68754 0-1.3135 0.31523-1.7969 0.79883-0.72341-0.62497-1.123-1.3115-1.123-1.9941 0-0.97814 0.75153-1.9376 2.0449-2.6621 1.2934-0.72448 3.1026-1.1934 5.0879-1.1934zm-4.2129 6.9473c0.39393 0 0.71802 0.31693 0.73828 0.72656 0.022309 0.44947-0.31584 0.80859-0.73828 0.80859-0.50125 0-0.86332-0.50053-0.70508-1.0039 0.10071-0.32246 0.38305-0.53125 0.70508-0.53125z" color="#000000" color-rendering="auto" dominant-baseline="auto" fill="#fff" image-rendering="auto" shape-rendering="auto" solid-color="#000000" style="font-feature-settings:normal;font-variant-alternates:normal;font-variant-caps:normal;font-variant-ligatures:normal;font-variant-numeric:normal;font-variant-position:normal;isolation:auto;mix-blend-mode:normal;shape-padding:0;text-decoration-color:#000000;text-decoration-line:none;text-decoration-style:solid;text-indent:0;text-orientation:mixed;text-transform:none;white-space:normal"/>
	</g>
</g></svg>
