<svg width="24" height="24" version="1.1" viewBox="0 0 24 24" xmlns="http://www.w3.org/2000/svg">
 <g transform="translate(0 -290.65)" fill="#fff" stroke="#fff" stroke-dashoffset="7.4" stroke-width=".2">
  <path d="m8.8959 303.81-2.7568 2.7568-2.688-2.6899-0.34628 7.664 7.664-0.34627-2.6899-2.6898 2.7568-2.7568z" style="paint-order:normal"/>
  <path d="m15.104 303.81 2.7568 2.7568 2.688-2.6899 0.34628 7.664-7.664-0.34627 2.6899-2.6898-2.7568-2.7568z" style="paint-order:normal"/>
  <path d="m8.8959 301.49-2.7568-2.7568-2.688 2.6899-0.34628-7.664 7.664 0.34627-2.6899 2.6898 2.7568 2.7568z" style="paint-order:normal"/>
  <path d="m15.104 301.49 2.7568-2.7568 2.688 2.6899 0.34628-7.664-7.664 0.34627 2.6899 2.6898-2.7568 2.7568z" style="paint-order:normal"/>
 </g>
</svg>
