<?xml version="1.0"?>
<svg xmlns="http://www.w3.org/2000/svg" xmlns:xlink="http://www.w3.org/1999/xlink" version="1.1" id="Capa_1" x="0px" y="0px" width="512px" height="512px" viewBox="0 0 140.171 140.171" style="enable-background:new 0 0 140.171 140.171;" xml:space="preserve"><g><g>
	<g id="_x36_5._Cut">
		<g>
			<path d="M112.137,80.731c-3.535,0-6.906,0.682-10.02,1.876L85.465,66.355l30.611-29.879c5.54-5.407,10.029-16.067,10.029-23.808     v-1.983c0-7.741-4.489-9.633-10.029-4.227L70.085,51.346L24.095,6.459c-5.541-5.407-10.032-3.515-10.032,4.227v1.979     c0,7.741,4.492,18.401,10.032,23.808l30.609,29.874L38.053,82.601c-3.114-1.191-6.483-1.869-10.019-1.869     C12.549,80.731,0,93.277,0,108.767c0,15.481,12.549,28.027,28.034,28.027c15.482,0,28.034-12.546,28.034-28.027     c0-4.052-0.876-7.885-2.417-11.362l16.435-16.043l16.434,16.043c-1.54,3.471-2.416,7.311-2.416,11.362     c0,15.481,12.549,28.027,28.034,28.027c15.481,0,28.034-12.546,28.034-28.027C140.171,93.277,127.619,80.731,112.137,80.731z      M28.034,122.776c-7.741,0-14.017-6.27-14.017-14.01c0-7.748,6.276-14.018,14.017-14.018s14.017,6.27,14.017,14.018     C42.051,116.507,35.775,122.776,28.034,122.776z M112.137,122.776c-7.741,0-14.018-6.27-14.018-14.01     c0-7.748,6.276-14.018,14.018-14.018s14.018,6.27,14.018,14.018C126.155,116.507,119.878,122.776,112.137,122.776z" data-original="#000000" class="active-path" data-old_color="#ffffff" fill="#ffffff"/>
		</g>
	</g>
</g></g> </svg>
