<?xml version="1.0" encoding="UTF-8" standalone="no"?>
<svg
   xmlns:dc="http://purl.org/dc/elements/1.1/"
   xmlns:cc="http://creativecommons.org/ns#"
   xmlns:rdf="http://www.w3.org/1999/02/22-rdf-syntax-ns#"
   xmlns:svg="http://www.w3.org/2000/svg"
   xmlns="http://www.w3.org/2000/svg"
   xmlns:sodipodi="http://sodipodi.sourceforge.net/DTD/sodipodi-0.dtd"
   xmlns:inkscape="http://www.inkscape.org/namespaces/inkscape"
   width="24"
   height="24"
   version="1.1"
   viewBox="0 0 24 24"
   id="svg18074"
   sodipodi:docname="more.svg"
   inkscape:version="0.92.4 (5da689c313, 2019-01-14)">
  <metadata
     id="metadata18080">
    <rdf:RDF>
      <cc:Work
         rdf:about="">
        <dc:format>image/svg+xml</dc:format>
        <dc:type
           rdf:resource="http://purl.org/dc/dcmitype/StillImage" />
        <dc:title></dc:title>
      </cc:Work>
    </rdf:RDF>
  </metadata>
  <defs
     id="defs18078" />
  <sodipodi:namedview
     pagecolor="#ffffff"
     bordercolor="#666666"
     borderopacity="1"
     objecttolerance="10"
     gridtolerance="10"
     guidetolerance="10"
     inkscape:pageopacity="0"
     inkscape:pageshadow="2"
     inkscape:window-width="1512"
     inkscape:window-height="1042"
     id="namedview18076"
     showgrid="false"
     inkscape:pagecheckerboard="true"
     units="px"
     inkscape:zoom="2.2942582"
     inkscape:cx="66.859862"
     inkscape:cy="97.990195"
     inkscape:window-x="0"
     inkscape:window-y="0"
     inkscape:window-maximized="0"
     inkscape:current-layer="svg18074" />
  <g
     transform="matrix(0.08208833,0,0,0.08512709,-4.8294667e-4,0.55586599)"
     id="g18072"
     style="fill:#fcfcfc;stroke-width:3.16521907">
    <g
       id="g18070"
       style="fill:#fcfcfc;stroke-width:3.16521907">
      <path
         d="m 286.94,69.377 c -3.614,-3.617 -7.898,-5.424 -12.848,-5.424 H 18.282 c -4.952,0 -9.233,1.807 -12.85,5.424 -3.617,3.621 -5.424,7.902 -5.424,12.851 0,4.948 1.807,9.229 5.424,12.847 l 127.91,127.91 c 3.621,3.617 7.902,5.428 12.85,5.428 4.948,0 9.233,-1.811 12.847,-5.428 l 127.91,-127.91 c 3.613,-3.617 5.427,-7.898 5.427,-12.847 0,-4.948 -1.814,-9.229 -5.427,-12.85 z"
         id="path18068"
         inkscape:connector-curvature="0"
         style="fill:#fcfcfc;stroke-width:3.16521907" />
    </g>
  </g>
</svg>
