<?xml version="1.0"?>
<svg xmlns="http://www.w3.org/2000/svg" xmlns:xlink="http://www.w3.org/1999/xlink" version="1.1" id="Capa_1" x="0px" y="0px" width="512px" height="512px" viewBox="0 0 32 32" style="enable-background:new 0 0 32 32;" xml:space="preserve"><g><g>
	<g>
		<path d="M14.708,15.847C14.252,14.864,14,13.742,14,12.5s0.252-2.489,0.708-3.659c0.455-1.171,1.114-2.266,1.929-3.205    c0.814-0.938,1.784-1.723,2.86-2.271C20.574,2.814,21.758,2.5,23,2.5s2.426,0.252,3.503,0.707c1.077,0.456,2.046,1.115,2.86,1.929    c0.813,0.814,1.474,1.784,1.929,2.861C31.749,9.073,32,10.258,32,11.5s-0.252,2.427-0.708,3.503    c-0.455,1.077-1.114,2.047-1.929,2.861C28.55,18.678,17.077,29.044,16,29.5l0,0l0,0C14.923,29.044,3.45,18.678,2.636,17.864    c-0.814-0.814-1.473-1.784-1.929-2.861C0.252,13.927,0,12.742,0,11.5s0.252-2.427,0.707-3.503C1.163,6.92,1.821,5.95,2.636,5.136    C3.45,4.322,4.42,3.663,5.497,3.207C6.573,2.752,7.757,2.5,9,2.5s2.427,0.314,3.503,0.863c1.077,0.55,2.046,1.334,2.861,2.272    c0.814,0.939,1.473,2.034,1.929,3.205C17.748,10.011,18,11.258,18,12.5s-0.252,2.364-0.707,3.347    c-0.456,0.983-1.113,1.828-1.929,2.518" data-original="#000000" class="active-path" data-old_color="#ffffff" fill="#ffffff"/>
	</g>
</g></g> </svg>
