<?xml version="1.0" encoding="UTF-8" standalone="no"?>
<!-- Svg Vector Icons : http://www.onlinewebfonts.com/icon -->

<svg
   xmlns:dc="http://purl.org/dc/elements/1.1/"
   xmlns:cc="http://creativecommons.org/ns#"
   xmlns:rdf="http://www.w3.org/1999/02/22-rdf-syntax-ns#"
   xmlns:svg="http://www.w3.org/2000/svg"
   xmlns="http://www.w3.org/2000/svg"
   xmlns:sodipodi="http://sodipodi.sourceforge.net/DTD/sodipodi-0.dtd"
   xmlns:inkscape="http://www.inkscape.org/namespaces/inkscape"
   version="1.1"
   x="0px"
   y="0px"
   viewBox="0 0 32 32"
   enable-background="new 0 0 1000 1000"
   xml:space="preserve"
   id="svg8453"
   sodipodi:docname="resize-image.svg"
   width="32"
   height="32"
   inkscape:version="0.92.1 r15371"><defs
     id="defs8457" /><sodipodi:namedview
     pagecolor="#ffffff"
     bordercolor="#666666"
     borderopacity="1"
     objecttolerance="10"
     gridtolerance="10"
     guidetolerance="10"
     inkscape:pageopacity="0"
     inkscape:pageshadow="2"
     inkscape:window-width="3200"
     inkscape:window-height="1675"
     id="namedview8455"
     showgrid="false"
     inkscape:pagecheckerboard="true"
     inkscape:showpageshadow="false"
     inkscape:zoom="22.08"
     inkscape:cx="-9.0690646"
     inkscape:cy="20.13044"
     inkscape:window-x="-13"
     inkscape:window-y="-13"
     inkscape:window-maximized="1"
     inkscape:current-layer="svg8453" /><metadata
     id="metadata8417"> Svg Vector Icons : http://www.onlinewebfonts.com/icon <rdf:RDF><cc:Work
     rdf:about=""><dc:format>image/svg+xml</dc:format><dc:type
       rdf:resource="http://purl.org/dc/dcmitype/StillImage" /><dc:title /></cc:Work></rdf:RDF></metadata><g
     id="g8451"
     transform="matrix(0.03206734,0,0,0.03206798,-0.03383069,-0.03398897)"
     style="fill:#ffffff;fill-opacity:1;stroke:none;stroke-width:31.18406487;stroke-opacity:1"><g
       transform="matrix(0.1,0,0,-0.1,0,511)"
       id="g8449"
       style="fill:#ffffff;fill-opacity:1;stroke:none;stroke-width:31.18406487;stroke-opacity:1"><path
         d="M 6070.8,2275.2 6400.3,1945.7 4781.1,328.9 3164.3,-1290.3 l -329.5,329.5 -329.5,329.5 v -877.9 -875.5 h 875.5 877.9 l -329.5,329.5 -329.5,329.5 1619.2,1616.8 1616.9,1619.2 329.5,-329.5 329.5,-329.5 v 877.9 875.5 h -875.5 -877.9 z"
         id="path8435"
         inkscape:connector-curvature="0"
         style="fill:#ffffff;fill-opacity:1;stroke:none;stroke-width:31.18406487;stroke-opacity:1" /></g></g><path
     style="opacity:1;fill:none;fill-opacity:1;stroke:#ffffff;stroke-width:3;stroke-linecap:round;stroke-linejoin:round;stroke-miterlimit:4;stroke-dasharray:none;stroke-dashoffset:0;stroke-opacity:1;paint-order:markers stroke fill"
     d="M 3.4333333,1.5 H 28.566667 C 29.637733,1.5 30.5,2.3622666 30.5,3.4333333 V 28.566667 C 30.5,29.637733 29.637733,30.5 28.566667,30.5 H 3.4333333 C 2.3622667,30.5 1.5,29.637733 1.5,28.566667 V 3.4333333 C 1.5,2.3622666 2.3622667,1.5 3.4333333,1.5 Z"
     id="rect12976"
     inkscape:connector-curvature="0" /></svg>