<?xml version="1.0" encoding="UTF-8" standalone="no"?>
<!-- Svg Vector Icons : http://www.onlinewebfonts.com/icon -->

<svg
   xmlns:dc="http://purl.org/dc/elements/1.1/"
   xmlns:cc="http://creativecommons.org/ns#"
   xmlns:rdf="http://www.w3.org/1999/02/22-rdf-syntax-ns#"
   xmlns:svg="http://www.w3.org/2000/svg"
   xmlns="http://www.w3.org/2000/svg"
   xmlns:sodipodi="http://sodipodi.sourceforge.net/DTD/sodipodi-0.dtd"
   xmlns:inkscape="http://www.inkscape.org/namespaces/inkscape"
   version="1.1"
   x="0px"
   y="0px"
   viewBox="0 0 32 32"
   enable-background="new 0 0 1000 1000"
   xml:space="preserve"
   id="svg8453"
   sodipodi:docname="resize-canvas.svg"
   width="32"
   height="32"
   inkscape:version="0.92.1 r15371"><defs
     id="defs8457" /><sodipodi:namedview
     pagecolor="#ffffff"
     bordercolor="#666666"
     borderopacity="1"
     objecttolerance="10"
     gridtolerance="10"
     guidetolerance="10"
     inkscape:pageopacity="0"
     inkscape:pageshadow="2"
     inkscape:window-width="3200"
     inkscape:window-height="1675"
     id="namedview8455"
     showgrid="false"
     inkscape:pagecheckerboard="true"
     inkscape:showpageshadow="false"
     inkscape:zoom="22.08"
     inkscape:cx="10.430209"
     inkscape:cy="22.52787"
     inkscape:window-x="-13"
     inkscape:window-y="-13"
     inkscape:window-maximized="1"
     inkscape:current-layer="svg8453" /><metadata
     id="metadata8417"> Svg Vector Icons : http://www.onlinewebfonts.com/icon <rdf:RDF><cc:Work
     rdf:about=""><dc:format>image/svg+xml</dc:format><dc:type
       rdf:resource="http://purl.org/dc/dcmitype/StillImage" /><dc:title></dc:title></cc:Work></rdf:RDF></metadata><g
     id="g8451"
     transform="matrix(0.03206734,0,0,0.03206798,-0.03383069,-0.03398897)"
     style="fill:#ffffff;fill-opacity:1;stroke:none;stroke-width:31.18406487;stroke-opacity:1"><g
       transform="matrix(0.1,0,0,-0.1,0,511)"
       id="g8449"
       style="fill:#ffffff;fill-opacity:1;stroke:none;stroke-width:31.18406487;stroke-opacity:1"><path
         d="M 6070.8,2275.2 6400.3,1945.7 4781.1,328.9 3164.3,-1290.3 l -329.5,329.5 -329.5,329.5 v -877.9 -875.5 h 875.5 877.9 l -329.5,329.5 -329.5,329.5 1619.2,1616.8 1616.9,1619.2 329.5,-329.5 329.5,-329.5 v 877.9 875.5 h -875.5 -877.9 z"
         id="path8435"
         inkscape:connector-curvature="0"
         style="fill:#ffffff;fill-opacity:1;stroke:none;stroke-width:31.18406487;stroke-opacity:1" /></g></g><path
     inkscape:connector-curvature="0"
     d="M 29.000441,8.4999999 V 10 H 32 V 7 h -3 v 1.4999999 z"
     id="path13015"
     style="fill:#ffffff;stroke-width:0.00325127" /><path
     inkscape:connector-curvature="0"
     d="M 29.000441,13.499697 V 15 H 32 v -3 h -3 v 1.499697 z"
     id="path13021"
     style="fill:#ffffff;stroke-width:0.00325127" /><path
     inkscape:connector-curvature="0"
     d="M 29.000441,18.5 V 20 H 32 v -3 h -3 v 1.5 z"
     id="path13023"
     style="fill:#ffffff;stroke-width:0.00325127" /><path
     inkscape:connector-curvature="0"
     d="M 29.000441,23.5 V 25 H 32 v -3 h -3 v 1.5 z"
     id="path13025"
     style="fill:#ffffff;stroke-width:0.00325127" /><path
     inkscape:connector-curvature="0"
     style="opacity:1;fill:none;fill-opacity:1;stroke:#ffffff;stroke-width:3;stroke-linecap:butt;stroke-linejoin:bevel;stroke-miterlimit:4;stroke-dasharray:none;stroke-dashoffset:0;stroke-opacity:1;paint-order:markers stroke fill"
     d="M 2.6999996,12.5 H 14.5 m 5.000001,5.000001 V 29.3 c 0,0.664799 -0.5352,1.2 -1.200001,1.2 H 2.6999996 C 2.0351992,30.5 1.5,29.964799 1.5,29.3 V 13.700001 C 1.5,13.035201 2.0351992,12.5 2.6999996,12.5"
     id="rect12976-1"
     sodipodi:nodetypes="cccsssssc" /><path
     inkscape:connector-curvature="0"
     style="color:#000000;font-style:normal;font-variant:normal;font-weight:normal;font-stretch:normal;font-size:medium;line-height:normal;font-family:sans-serif;font-variant-ligatures:normal;font-variant-position:normal;font-variant-caps:normal;font-variant-numeric:normal;font-variant-alternates:normal;font-feature-settings:normal;text-indent:0;text-align:start;text-decoration:none;text-decoration-line:none;text-decoration-style:solid;text-decoration-color:#000000;letter-spacing:normal;word-spacing:normal;text-transform:none;writing-mode:lr-tb;direction:ltr;text-orientation:mixed;dominant-baseline:auto;baseline-shift:baseline;text-anchor:start;white-space:normal;shape-padding:0;clip-rule:nonzero;display:inline;overflow:visible;visibility:visible;opacity:1;isolation:auto;mix-blend-mode:normal;color-interpolation:sRGB;color-interpolation-filters:linearRGB;solid-color:#000000;solid-opacity:1;vector-effect:none;fill:#ffffff;fill-opacity:1;fill-rule:nonzero;stroke:none;stroke-width:2;stroke-linecap:butt;stroke-linejoin:round;stroke-miterlimit:4;stroke-dasharray:6.00000001, 2.00000001;stroke-dashoffset:7.4000001;stroke-opacity:1;paint-order:markers stroke fill;color-rendering:auto;image-rendering:auto;shape-rendering:auto;text-rendering:auto;enable-background:accumulate"
     d="m 3,4.999958 0.024572,-0.9662163 0.025387,-0.244141 0.058582,-0.189453 0.091788,-0.169922 0.1191243,-0.142578 0.1425593,-0.119141 0.1698996,-0.0918 0.1894281,-0.05859 0.2441079,-0.02539 L 5,3 V -2.1e-5 l -2.0003537,-2e-5 -0.099597,0.0059 L 2.4958056,0.044919 2.3005193,0.085939 1.9236159,0.201173 1.7439515,0.277343 1.4041522,0.460937 1.2440173,0.568358 0.9491341,0.812499 0.81243409,0.949218 0.56832521,1.24414 0.46091734,1.404296 0.2773475,1.74414 0.20118752,1.923827 0.08596869,2.30078 0.04495408,2.496093 0.00589922,2.90039 0,3 v 2 z"
     id="path17620-2-3-2"
     sodipodi:nodetypes="cccccccccccccccccccccccccccccccc" /><path
     inkscape:connector-curvature="0"
     d="M 8.5,2.999559 H 10 V 1e-7 H 7 V 3 h 1.5 z"
     id="path13015-2"
     style="fill:#ffffff;stroke-width:0.00325127" /><path
     inkscape:connector-curvature="0"
     d="M 13.499696,2.999559 H 15 V 1e-7 H 12 V 3 h 1.499696 z"
     id="path13021-3"
     style="fill:#ffffff;stroke-width:0.00325127" /><path
     inkscape:connector-curvature="0"
     d="M 18.5,2.999559 H 20 V 1e-7 H 17 V 3 h 1.5 z"
     id="path13023-6"
     style="fill:#ffffff;stroke-width:0.00325127" /><path
     inkscape:connector-curvature="0"
     d="M 23.5,2.999559 H 25 V 1e-7 H 22 V 3 h 1.5 z"
     id="path13025-8"
     style="fill:#ffffff;stroke-width:0.00325127" /><path
     inkscape:connector-curvature="0"
     d="M 23.5,31.999561 H 25 v -2.999559 h -3 v 3 h 1.5 z"
     id="path13025-8-9"
     style="fill:#ffffff;stroke-width:0.00325127" /><path
     inkscape:connector-curvature="0"
     d="M 4.4099935e-4,8.4999999 V 10 H 3.0000001 V 7 H 0 v 1.4999999 z"
     id="path13015-4"
     style="fill:#ffffff;stroke-width:0.00325127" /><path
     inkscape:connector-curvature="0"
     style="color:#000000;font-style:normal;font-variant:normal;font-weight:normal;font-stretch:normal;font-size:medium;line-height:normal;font-family:sans-serif;font-variant-ligatures:normal;font-variant-position:normal;font-variant-caps:normal;font-variant-numeric:normal;font-variant-alternates:normal;font-feature-settings:normal;text-indent:0;text-align:start;text-decoration:none;text-decoration-line:none;text-decoration-style:solid;text-decoration-color:#000000;letter-spacing:normal;word-spacing:normal;text-transform:none;writing-mode:lr-tb;direction:ltr;text-orientation:mixed;dominant-baseline:auto;baseline-shift:baseline;text-anchor:start;white-space:normal;shape-padding:0;clip-rule:nonzero;display:inline;overflow:visible;visibility:visible;opacity:1;isolation:auto;mix-blend-mode:normal;color-interpolation:sRGB;color-interpolation-filters:linearRGB;solid-color:#000000;solid-opacity:1;vector-effect:none;fill:#ffffff;fill-opacity:1;fill-rule:nonzero;stroke:none;stroke-width:2;stroke-linecap:butt;stroke-linejoin:round;stroke-miterlimit:4;stroke-dasharray:6.00000001, 2.00000001;stroke-dashoffset:7.4000001;stroke-opacity:1;paint-order:markers stroke fill;color-rendering:auto;image-rendering:auto;shape-rendering:auto;text-rendering:auto;enable-background:accumulate"
     d="m 29.000001,27.000027 -0.02457,0.966217 -0.02539,0.244141 -0.05858,0.189453 -0.09179,0.169922 -0.119125,0.142578 -0.142559,0.119141 -0.1699,0.0918 -0.189428,0.05859 -0.244108,0.02539 L 27,28.999959 v 3.000021 l 2.000353,2e-5 0.0996,-0.0059 0.404244,-0.03906 0.195286,-0.04102 0.376904,-0.115234 0.179664,-0.07617 0.339799,-0.183594 0.160135,-0.107421 0.294884,-0.244141 0.1367,-0.136719 0.244108,-0.294922 0.107408,-0.160156 0.18357,-0.339844 0.07616,-0.179687 0.115219,-0.376953 0.04101,-0.195313 0.03905,-0.404297 0.0059,-0.09961 v -2 z"
     id="path17620-2-3-2-8"
     sodipodi:nodetypes="cccccccccccccccccccccccccccccccc" /><path
     inkscape:connector-curvature="0"
     style="color:#000000;font-style:normal;font-variant:normal;font-weight:normal;font-stretch:normal;font-size:medium;line-height:normal;font-family:sans-serif;font-variant-ligatures:normal;font-variant-position:normal;font-variant-caps:normal;font-variant-numeric:normal;font-variant-alternates:normal;font-feature-settings:normal;text-indent:0;text-align:start;text-decoration:none;text-decoration-line:none;text-decoration-style:solid;text-decoration-color:#000000;letter-spacing:normal;word-spacing:normal;text-transform:none;writing-mode:lr-tb;direction:ltr;text-orientation:mixed;dominant-baseline:auto;baseline-shift:baseline;text-anchor:start;white-space:normal;shape-padding:0;clip-rule:nonzero;display:inline;overflow:visible;visibility:visible;opacity:1;isolation:auto;mix-blend-mode:normal;color-interpolation:sRGB;color-interpolation-filters:linearRGB;solid-color:#000000;solid-opacity:1;vector-effect:none;fill:#ffffff;fill-opacity:1;fill-rule:nonzero;stroke:none;stroke-width:2;stroke-linecap:butt;stroke-linejoin:round;stroke-miterlimit:4;stroke-dasharray:6.00000001, 2.00000001;stroke-dashoffset:7.4000001;stroke-opacity:1;paint-order:markers stroke fill;color-rendering:auto;image-rendering:auto;shape-rendering:auto;text-rendering:auto;enable-background:accumulate"
     d="M 29.000001,4.9999613 28.975431,4.033745 28.950041,3.789604 28.891461,3.600151 28.799671,3.430229 28.680547,3.287651 28.537988,3.16851 28.368088,3.07671 28.17866,3.01812 27.934552,2.99273 27,3 V -2.098e-5 l 2.000354,-2e-5 0.0996,0.0059 0.404244,0.03906 0.195286,0.04102 0.376903,0.115234 0.179665,0.07617 0.339799,0.183594 0.160135,0.107421 0.294883,0.244141 0.1367,0.136719 0.244109,0.29492198 0.107408,0.160156 0.18357,0.339844 0.07616,0.179687 0.115219,0.376953 0.04101,0.195313 0.03906,0.404297 L 32.000005,3 v 2 z"
     id="path17620-2-3-2-7"
     sodipodi:nodetypes="cccccccccccccccccccccccccccccccc" /></svg>