<?xml version="1.0" encoding="UTF-8" standalone="no"?>
<!-- Generator: Adobe Illustrator 19.0.0, SVG Export Plug-In . SVG Version: 6.00 Build 0)  -->

<svg
   xmlns:dc="http://purl.org/dc/elements/1.1/"
   xmlns:cc="http://creativecommons.org/ns#"
   xmlns:rdf="http://www.w3.org/1999/02/22-rdf-syntax-ns#"
   xmlns:svg="http://www.w3.org/2000/svg"
   xmlns="http://www.w3.org/2000/svg"
   xmlns:sodipodi="http://sodipodi.sourceforge.net/DTD/sodipodi-0.dtd"
   xmlns:inkscape="http://www.inkscape.org/namespaces/inkscape"
   version="1.1"
   id="Capa_1"
   x="0px"
   y="0px"
   viewBox="0 0 18 18"
   xml:space="preserve"
   width="18"
   height="18"
   sodipodi:docname="selection-remove.svg"
   inkscape:version="0.92.4 (5da689c313, 2019-01-14)"><metadata
     id="metadata8476"><rdf:RDF><cc:Work
         rdf:about=""><dc:format>image/svg+xml</dc:format><dc:type
           rdf:resource="http://purl.org/dc/dcmitype/StillImage" /><dc:title></dc:title></cc:Work></rdf:RDF></metadata><defs
     id="defs8474" /><sodipodi:namedview
     pagecolor="#ffffff"
     bordercolor="#666666"
     borderopacity="1"
     objecttolerance="10"
     gridtolerance="10"
     guidetolerance="10"
     inkscape:pageopacity="0"
     inkscape:pageshadow="2"
     inkscape:window-width="1552"
     inkscape:window-height="967"
     id="namedview8472"
     showgrid="false"
     inkscape:pagecheckerboard="true"
     inkscape:showpageshadow="false"
     inkscape:zoom="18.826718"
     inkscape:cx="6.742768"
     inkscape:cy="11.350153"
     inkscape:window-x="432"
     inkscape:window-y="263"
     inkscape:window-maximized="0"
     inkscape:current-layer="Capa_1" /><g
     id="g8441"
     transform="matrix(0.0625,0,0,0.0625,0,-14)"
     style="stroke-width:16" /><g
     id="g8443"
     transform="matrix(0.0625,0,0,0.0625,0,-14)"
     style="stroke-width:16" /><g
     id="g8445"
     transform="matrix(0.0625,0,0,0.0625,0,-14)"
     style="stroke-width:16" /><g
     id="g8447"
     transform="matrix(0.0625,0,0,0.0625,0,-14)"
     style="stroke-width:16" /><g
     id="g8449"
     transform="matrix(0.0625,0,0,0.0625,0,-14)"
     style="stroke-width:16" /><g
     id="g8451"
     transform="matrix(0.0625,0,0,0.0625,0,-14)"
     style="stroke-width:16" /><g
     id="g8453"
     transform="matrix(0.0625,0,0,0.0625,0,-14)"
     style="stroke-width:16" /><g
     id="g8455"
     transform="matrix(0.0625,0,0,0.0625,0,-14)"
     style="stroke-width:16" /><g
     id="g8457"
     transform="matrix(0.0625,0,0,0.0625,0,-14)"
     style="stroke-width:16" /><g
     id="g8459"
     transform="matrix(0.0625,0,0,0.0625,0,-14)"
     style="stroke-width:16" /><g
     id="g8461"
     transform="matrix(0.0625,0,0,0.0625,0,-14)"
     style="stroke-width:16" /><g
     id="g8463"
     transform="matrix(0.0625,0,0,0.0625,0,-14)"
     style="stroke-width:16" /><g
     id="g8465"
     transform="matrix(0.0625,0,0,0.0625,0,-14)"
     style="stroke-width:16" /><g
     id="g8467"
     transform="matrix(0.0625,0,0,0.0625,0,-14)"
     style="stroke-width:16" /><g
     id="g8469"
     transform="matrix(0.0625,0,0,0.0625,0,-14)"
     style="stroke-width:16" /><g
     style="fill:#ffffff;fill-opacity:1;stroke-width:10.03100014"
     id="g86458"
     transform="matrix(0.09969096,0,0,0.09969096,1,-4.9393883)" /><g
     style="fill:#ffffff;fill-opacity:1;stroke-width:10.03100014"
     id="g86460"
     transform="matrix(0.09969096,0,0,0.09969096,1,-4.9393883)" /><g
     style="fill:#ffffff;fill-opacity:1;stroke-width:10.03100014"
     id="g86462"
     transform="matrix(0.09969096,0,0,0.09969096,1,-4.9393883)" /><g
     style="fill:#ffffff;fill-opacity:1;stroke-width:10.03100014"
     id="g86464"
     transform="matrix(0.09969096,0,0,0.09969096,1,-4.9393883)" /><g
     style="fill:#ffffff;fill-opacity:1;stroke-width:10.03100014"
     id="g86466"
     transform="matrix(0.09969096,0,0,0.09969096,1,-4.9393883)" /><g
     style="fill:#ffffff;fill-opacity:1;stroke-width:10.03100014"
     id="g86468"
     transform="matrix(0.09969096,0,0,0.09969096,1,-4.9393883)" /><g
     style="fill:#ffffff;fill-opacity:1;stroke-width:10.03100014"
     id="g86470"
     transform="matrix(0.09969096,0,0,0.09969096,1,-4.9393883)" /><g
     style="fill:#ffffff;fill-opacity:1;stroke-width:10.03100014"
     id="g86472"
     transform="matrix(0.09969096,0,0,0.09969096,1,-4.9393883)" /><g
     style="fill:#ffffff;fill-opacity:1;stroke-width:10.03100014"
     id="g86474"
     transform="matrix(0.09969096,0,0,0.09969096,1,-4.9393883)" /><g
     style="fill:#ffffff;fill-opacity:1;stroke-width:10.03100014"
     id="g86476"
     transform="matrix(0.09969096,0,0,0.09969096,1,-4.9393883)" /><g
     style="fill:#ffffff;fill-opacity:1;stroke-width:10.03100014"
     id="g86478"
     transform="matrix(0.09969096,0,0,0.09969096,1,-4.9393883)" /><g
     style="fill:#ffffff;fill-opacity:1;stroke-width:10.03100014"
     id="g86480"
     transform="matrix(0.09969096,0,0,0.09969096,1,-4.9393883)" /><g
     style="fill:#ffffff;fill-opacity:1;stroke-width:10.03100014"
     id="g86482"
     transform="matrix(0.09969096,0,0,0.09969096,1,-4.9393883)" /><g
     style="fill:#ffffff;fill-opacity:1;stroke-width:10.03100014"
     id="g86484"
     transform="matrix(0.09969096,0,0,0.09969096,1,-4.9393883)" /><g
     style="fill:#ffffff;fill-opacity:1;stroke-width:10.03100014"
     id="g86486"
     transform="matrix(0.09969096,0,0,0.09969096,1,-4.9393883)" /><path
     style="opacity:1;fill:#ffffff;fill-opacity:1;stroke:none;stroke-width:1.39999998;stroke-linecap:butt;stroke-linejoin:miter;stroke-miterlimit:4;stroke-dasharray:none;stroke-dashoffset:6.80541754;stroke-opacity:1;paint-order:stroke fill markers"
     d="M 1,1 H 11 V 7.7050509 L 8,8 7.7634373,11 H 1 Z"
     id="rect14171"
     inkscape:connector-curvature="0"
     sodipodi:nodetypes="ccccccc" /><rect
     style="opacity:1;fill:none;fill-opacity:1;stroke:#ffffff;stroke-width:2;stroke-linecap:butt;stroke-linejoin:miter;stroke-miterlimit:4;stroke-dasharray:none;stroke-dashoffset:6.80541754;stroke-opacity:1;paint-order:stroke fill markers"
     id="rect14171-1"
     width="8"
     height="8"
     x="7"
     y="7" /></svg>