<?xml version="1.0" encoding="UTF-8" standalone="no"?>
<svg
   xmlns:dc="http://purl.org/dc/elements/1.1/"
   xmlns:cc="http://creativecommons.org/ns#"
   xmlns:rdf="http://www.w3.org/1999/02/22-rdf-syntax-ns#"
   xmlns:svg="http://www.w3.org/2000/svg"
   xmlns="http://www.w3.org/2000/svg"
   xmlns:sodipodi="http://sodipodi.sourceforge.net/DTD/sodipodi-0.dtd"
   xmlns:inkscape="http://www.inkscape.org/namespaces/inkscape"
   enable-background="new 0 0 525.166 525.166"
   version="1.1"
   viewBox="0 0 24 23.999999"
   xml:space="preserve"
   id="svg4751"
   sodipodi:docname="settings.svg"
   inkscape:version="0.92.4 (5da689c313, 2019-01-14)"
   width="24"
   height="24"><metadata
     id="metadata4757"><rdf:RDF><cc:Work
         rdf:about=""><dc:format>image/svg+xml</dc:format><dc:type
           rdf:resource="http://purl.org/dc/dcmitype/StillImage" /><dc:title></dc:title></cc:Work></rdf:RDF></metadata><defs
     id="defs4755" /><sodipodi:namedview
     pagecolor="#ffffff"
     bordercolor="#666666"
     borderopacity="1"
     objecttolerance="10"
     gridtolerance="10"
     guidetolerance="10"
     inkscape:pageopacity="0"
     inkscape:pageshadow="2"
     inkscape:window-width="3200"
     inkscape:window-height="1675"
     id="namedview4753"
     showgrid="false"
     inkscape:zoom="0.5"
     inkscape:cx="23.364249"
     inkscape:cy="6.3588158"
     inkscape:window-x="-13"
     inkscape:window-y="-13"
     inkscape:window-maximized="1"
     inkscape:current-layer="svg4751"
     inkscape:pagecheckerboard="true" /><g
     id="g4886"
     transform="matrix(0.02455286,0,0,0.02455286,1,1.0003428)"
     style="fill:#ffffff;fill-opacity:1;stroke-width:40.7284584"><g
       id="g4830"
       style="fill:#ffffff;fill-opacity:1;stroke-width:40.7284584">
	<path
   d="M 863.24,382.771 774.481,367.964 C 768.03,341.59 758.624,316.379 746.374,292.865 l 56.821,-70.452 c 12.085,-14.889 11.536,-36.312 -1.205,-50.682 l -35.301,-39.729 c -12.796,-14.355 -34.016,-17.391 -50.202,-7.165 l -75.906,47.716 c -33.386,-23.326 -71.204,-40.551 -112,-50.546 L 513.731,32.772 C 510.615,13.877 494.264,0.013 475.07,0.013 h -53.198 c -19.155,0 -35.561,13.864 -38.608,32.759 l -14.931,89.263 c -33.729,8.258 -65.353,21.588 -94.213,39.144 l -72.188,-51.518 c -15.558,-11.115 -36.927,-9.377 -50.504,4.171 l -37.583,37.61 c -13.548,13.577 -15.286,34.946 -4.142,50.504 l 51.638,72.326 C 143.95,302.914 130.757,334.358 122.5,367.787 L 32.757,382.772 C 13.891,385.888 0,402.24 0,421.435 v 53.156 c 0,19.193 13.891,35.547 32.757,38.663 l 89.743,14.985 c 6.781,27.508 16.625,53.784 29.709,78.147 L 95.647,676.44 c -12.044,14.875 -11.538,36.312 1.203,50.669 l 35.274,39.73 c 12.797,14.382 34.028,17.363 50.216,7.163 l 77,-48.37 c 32.581,22.285 69.44,38.664 108.993,48.37 l 14.931,89.25 c 3.048,18.896 19.453,32.76 38.608,32.76 h 53.198 c 19.194,0 35.545,-13.863 38.661,-32.759 l 14.875,-89.25 c 33.308,-8.147 64.531,-21.245 93.134,-38.5 l 75.196,53.705 c 15.53,11.155 36.915,9.405 50.478,-4.186 l 37.598,-37.597 c 13.532,-13.536 15.365,-34.893 4.127,-50.479 l -53.536,-75.059 c 17.441,-28.738 30.704,-60.238 38.909,-93.816 l 88.758,-14.82 c 18.921,-3.116 32.756,-19.469 32.756,-38.663 V 421.432 C 895.998,402.24 882.163,385.888 863.24,382.771 Z M 449.42,616.013 c -92.764,0 -168,-75.25 -168,-168 0,-92.764 75.236,-168 168,-168 92.748,0 167.998,75.236 167.998,168 0,92.75 -75.25,168 -167.998,168 z"
   id="settings_1_"
   inkscape:connector-curvature="0"
   style="fill:#ffffff;fill-opacity:1;stroke-width:40.7284584" />
</g><g
       id="g4832"
       style="fill:#ffffff;fill-opacity:1;stroke-width:40.7284584">
</g><g
       id="g4834"
       style="fill:#ffffff;fill-opacity:1;stroke-width:40.7284584">
</g><g
       id="g4836"
       style="fill:#ffffff;fill-opacity:1;stroke-width:40.7284584">
</g><g
       id="g4838"
       style="fill:#ffffff;fill-opacity:1;stroke-width:40.7284584">
</g><g
       id="g4840"
       style="fill:#ffffff;fill-opacity:1;stroke-width:40.7284584">
</g><g
       id="g4842"
       style="fill:#ffffff;fill-opacity:1;stroke-width:40.7284584">
</g><g
       id="g4844"
       style="fill:#ffffff;fill-opacity:1;stroke-width:40.7284584">
</g><g
       id="g4846"
       style="fill:#ffffff;fill-opacity:1;stroke-width:40.7284584">
</g><g
       id="g4848"
       style="fill:#ffffff;fill-opacity:1;stroke-width:40.7284584">
</g><g
       id="g4850"
       style="fill:#ffffff;fill-opacity:1;stroke-width:40.7284584">
</g><g
       id="g4852"
       style="fill:#ffffff;fill-opacity:1;stroke-width:40.7284584">
</g><g
       id="g4854"
       style="fill:#ffffff;fill-opacity:1;stroke-width:40.7284584">
</g><g
       id="g4856"
       style="fill:#ffffff;fill-opacity:1;stroke-width:40.7284584">
</g><g
       id="g4858"
       style="fill:#ffffff;fill-opacity:1;stroke-width:40.7284584">
</g><g
       id="g4860"
       style="fill:#ffffff;fill-opacity:1;stroke-width:40.7284584">
</g></g></svg>