<?xml version="1.0" encoding="UTF-8" standalone="no"?>
<svg
   xmlns:dc="http://purl.org/dc/elements/1.1/"
   xmlns:cc="http://creativecommons.org/ns#"
   xmlns:rdf="http://www.w3.org/1999/02/22-rdf-syntax-ns#"
   xmlns:svg="http://www.w3.org/2000/svg"
   xmlns="http://www.w3.org/2000/svg"
   xmlns:sodipodi="http://sodipodi.sourceforge.net/DTD/sodipodi-0.dtd"
   xmlns:inkscape="http://www.inkscape.org/namespaces/inkscape"
   version="1.1"
   id="Capa_1"
   x="0px"
   y="0px"
   width="512px"
   height="512px"
   viewBox="0 0 314.41 314.41"
   style="enable-background:new 0 0 314.41 314.41;"
   xml:space="preserve"
   sodipodi:docname="cutout-triangle.svg"
   inkscape:version="0.92.1 r15371"><metadata
     id="metadata8428"><rdf:RDF><cc:Work
         rdf:about=""><dc:format>image/svg+xml</dc:format><dc:type
           rdf:resource="http://purl.org/dc/dcmitype/StillImage" /></cc:Work></rdf:RDF></metadata><defs
     id="defs8426" /><sodipodi:namedview
     pagecolor="#ffffff"
     bordercolor="#666666"
     borderopacity="1"
     objecttolerance="10"
     gridtolerance="10"
     guidetolerance="10"
     inkscape:pageopacity="0"
     inkscape:pageshadow="2"
     inkscape:window-width="1718"
     inkscape:window-height="1368"
     id="namedview8424"
     showgrid="false"
     inkscape:zoom="2.359375"
     inkscape:cx="256"
     inkscape:cy="256"
     inkscape:window-x="-7"
     inkscape:window-y="0"
     inkscape:window-maximized="0"
     inkscape:current-layer="Capa_1" /><g
     id="g8421"
     transform="matrix(0,-1.0013332,1.0000016,0,-5.000008e-4,314.006)"
     style="stroke-width:0.9993341"><g
       id="g8419"
       style="stroke-width:0.9993341"><path
         d="M 288.318,145.307 39.832,1.841 c -4.253,-2.454 -9.486,-2.454 -13.74,0 -4.249,2.452 -6.871,6.991 -6.871,11.898 v 286.93 c 0,4.908 2.622,9.447 6.871,11.898 2.128,1.229 4.5,1.843 6.87,1.843 2.372,0 4.743,-0.614 6.87,-1.843 L 288.319,169.103 c 4.25,-2.452 6.871,-6.991 6.871,-11.898 -10e-4,-4.908 -2.622,-9.446 -6.872,-11.898 z M 46.702,276.868 V 37.541 l 207.265,119.664 z"
         data-original="#000000"
         class="active-path"
         data-old_color="#ffffff"
         id="path8417"
         inkscape:connector-curvature="0"
         style="fill:#ffffff;stroke-width:0.9993341" /></g></g></svg>