<svg width="12" height="24" enable-background="new 0 0 525.166 525.166" version="1.1" viewBox="0 0 12 24" xml:space="preserve" xmlns="http://www.w3.org/2000/svg"><g transform="matrix(1 0 0 1.009 1.9998 -505.91)" fill="#fff"><path d="m1.979e-4 501.38v8.66l3.2473-3.2473c1.7884 1.7878 2.6843 4.1334 2.6877 6.4799-0.00357 2.3465-0.89935 4.692-2.6877 6.4799l-3.2473-3.2473v8.6599h8.6599l-3.2473-3.2332c0.074725-0.0747 0.14832-0.15024 0.22071-0.22645 1.49e-5 -1e-5 -1.58e-5 -9e-5 0-9e-5 0.072386-0.0762 0.14364-0.15305 0.21369-0.23063 1.49e-5 -2e-5 -1.58e-5 -1e-4 0-1e-4 1.8919-2.0949 2.9323-4.6837 3.1213-7.3219 0.00704-0.0974 0.012824-0.195 0.017492-0.29258 1.19e-5 -2.3e-4 -1.19e-5 -4.8e-4 0-7.2e-4 0.00466-0.0975 0.00823-0.19515 0.010565-0.29277 6.9e-6 -2.7e-4 -5.9e-6 -5.4e-4 0-8.1e-4 0.00238-0.0976 0.00347-0.19529 0.00347-0.29294v-7.4e-4c0-0.0976-0.00109-0.19532-0.00347-0.29293-5.9e-6 -2.9e-4 6.9e-6 -5.6e-4 0-8.2e-4 -0.00228-0.0976-0.00595-0.19519-0.010565-0.29277-1.19e-5 -2.3e-4 1.19e-5 -4.9e-4 0-7.2e-4 -0.00466-0.0976-0.010505-0.19512-0.017492-0.29258-0.18903-2.6383-1.2295-5.227-3.1213-7.3219-1.49e-5 -2e-5 1.49e-5 -8e-5 0-1e-4 -0.070047-0.0776-0.14131-0.15444-0.21369-0.23064-1.49e-5 -1e-5 1.49e-5 -7e-5 0-9e-5 -0.072396-0.0762-0.14597-0.15167-0.22071-0.22645l3.2473-3.2332-8.6599-1e-5" fill="#fff"/></g></svg>
