<?xml version="1.0" encoding="UTF-8" standalone="no"?>
<svg
   xmlns:dc="http://purl.org/dc/elements/1.1/"
   xmlns:cc="http://creativecommons.org/ns#"
   xmlns:rdf="http://www.w3.org/1999/02/22-rdf-syntax-ns#"
   xmlns:svg="http://www.w3.org/2000/svg"
   xmlns="http://www.w3.org/2000/svg"
   xmlns:sodipodi="http://sodipodi.sourceforge.net/DTD/sodipodi-0.dtd"
   xmlns:inkscape="http://www.inkscape.org/namespaces/inkscape"
   width="18"
   height="18"
   version="1.1"
   viewBox="0 0 18 18"
   xml:space="preserve"
   id="svg921"
   sodipodi:docname="text-settings.svg"
   inkscape:version="1.0beta1 (fe3e306, 2019-09-17)">
  <metadata
   id="metadata927">
    <rdf:RDF>
      <cc:Work
   rdf:about="">
        <dc:format>image/svg+xml</dc:format>

        <dc:type
   rdf:resource="http://purl.org/dc/dcmitype/StillImage" />

        <dc:title></dc:title>

      </cc:Work>

    </rdf:RDF>

  </metadata>

  <defs
   id="defs925" />

  <sodipodi:namedview
   pagecolor="#ffffff"
   bordercolor="#666666"
   inkscape:document-rotation="0"
   borderopacity="1"
   objecttolerance="10"
   gridtolerance="10"
   guidetolerance="10"
   inkscape:pageopacity="0"
   inkscape:pageshadow="2"
   inkscape:window-width="1102"
   inkscape:window-height="831"
   id="namedview923"
   showgrid="false"
   inkscape:pagecheckerboard="true"
   units="px"
   inkscape:zoom="22.4"
   inkscape:cx="12.920055"
   inkscape:cy="9.1541086"
   inkscape:window-x="-6"
   inkscape:window-y="0"
   inkscape:window-maximized="0"
   inkscape:current-layer="svg921"
   scale-x="1" />

  
  
  <path
   style="opacity:1;fill:#ffffff;stroke-width:1;stop-opacity:1"
   inkscape:connector-curvature="0"
   id="path915"
   d="M 11.295087,12.14849 C 11.342997,12.04952 11.399792,12 11.465291,12 h 6.292656 c 0.06559,0 0.122295,0.04952 0.170218,0.14849 0.04788,0.09891 0.07183,0.21613 0.07183,0.35151 v 0.99996 c 0,0.13538 -0.02396,0.2526 -0.07185,0.35171 C 17.880188,13.95045 17.823459,14 17.757933,14 h -6.292656 c -0.06549,0 -0.12228,-0.04955 -0.170204,-0.14833 -0.04786,-0.09908 -0.07186,-0.21629 -0.07186,-0.35171 V 12.5 c 2.6e-5,-0.13538 0.024,-0.2526 0.07187,-0.35151 z" />

  
<path
   d="m 17.716314,9.99997 h -6.807726 c -0.07684,0 -0.143273,-0.04958 -0.199439,-0.14855 -0.0561,-0.09883 -0.08415,-0.21611 -0.08415,-0.35147 v -1 c 0,-0.1355 0.02805,-0.25259 0.08415,-0.35153 C 10.765288,8.049449 10.831745,8 10.908588,8 h 6.807726 c 0.07686,0 0.143331,0.04945 0.199498,0.14842 0.0561,0.098916 0.08419,0.21611 0.08419,0.35153 v 1 c 0,0.13536 -0.02809,0.25264 -0.0842,0.35147 -0.05621,0.09897 -0.122672,0.14855 -0.199482,0.14855 z"
   id="path911-3"
   inkscape:connector-curvature="0"
   style="opacity:1;fill:#ffffff;stroke-width:0.999999;stop-opacity:1" />
<path
   style="opacity:1;fill:#ffffff;stroke-width:0.999997;stop-opacity:1"
   inkscape:connector-curvature="0"
   id="path911-3-0"
   d="m 17.695021,5.9999703 h -7.31872 c -0.08259,0 -0.154024,-0.04958 -0.214407,-0.14855 -0.06032,-0.09883 -0.09047,-0.21611 -0.09047,-0.3514699 V 4.49995 c 0,-0.1355 0.03016,-0.25259 0.09047,-0.35153 C 10.222256,4.049449 10.293693,4 10.376301,4 h 7.31872 c 0.08264,0 0.154091,0.049445 0.214474,0.14842 0.06033,0.098916 0.09051,0.21611 0.09051,0.35153 v 1.0000004 c 0,0.1353599 -0.03019,0.2526399 -0.09052,0.3514699 -0.06042,0.09897 -0.13188,0.14855 -0.214456,0.14855 z" />
<g
   transform="matrix(1,0,0,0.88888889,0,1.0000008)"
   style="font-style:normal;font-variant:normal;font-weight:normal;font-stretch:normal;font-size:40px;line-height:1.25;font-family:'Adobe Heiti Std';-inkscape-font-specification:'Adobe Heiti Std';font-variant-ligatures:normal;font-variant-caps:normal;font-variant-numeric:normal;font-feature-settings:normal;text-align:start;letter-spacing:0px;word-spacing:0px;writing-mode:lr-tb;text-anchor:start;fill:#ffffff;fill-opacity:1;stroke:none;stroke-width:1.06066"
   id="text1073"
   aria-label="A">
  <path
     inkscape:connector-curvature="0"
     id="path1075"
     style="font-style:normal;font-variant:normal;font-weight:bold;font-stretch:ultra-condensed;font-size:21.3333px;font-family:Antonio;-inkscape-font-specification:'Antonio Bold Ultra-Condensed';fill:#ffffff;fill-opacity:1;stroke-width:1.06066"
     d="M 5.7499909,12.589772 4.5208262,3.5488628 H 4.4791596 L 3.3541614,12.589772 Z M 1.8626451e-8,17.999999 2.6145792,-9.0707578e-7 H 6.3020734 L 9.083319,17.999999 H 6.4791565 L 6.0416571,14.788636 H 3.0833285 l -0.3958327,3.211363 z" />
</g>
</svg>
