<?xml version="1.0" encoding="UTF-8" standalone="no"?>
<!-- Generator: Adobe Illustrator 16.0.0, SVG Export Plug-In . SVG Version: 6.00 Build 0)  -->

<svg
   xmlns:dc="http://purl.org/dc/elements/1.1/"
   xmlns:cc="http://creativecommons.org/ns#"
   xmlns:rdf="http://www.w3.org/1999/02/22-rdf-syntax-ns#"
   xmlns:svg="http://www.w3.org/2000/svg"
   xmlns="http://www.w3.org/2000/svg"
   xmlns:sodipodi="http://sodipodi.sourceforge.net/DTD/sodipodi-0.dtd"
   xmlns:inkscape="http://www.inkscape.org/namespaces/inkscape"
   version="1.1"
   id="Capa_1"
   x="0px"
   y="0px"
   width="24"
   height="24"
   viewBox="0 0 24 24"
   xml:space="preserve"
   sodipodi:docname="text.svg"
   inkscape:version="0.92.4 (5da689c313, 2019-01-14)"><metadata
     id="metadata8681"><rdf:RDF><cc:Work
         rdf:about=""><dc:format>image/svg+xml</dc:format><dc:type
           rdf:resource="http://purl.org/dc/dcmitype/StillImage" /><dc:title></dc:title></cc:Work></rdf:RDF></metadata><defs
     id="defs8679"><style
       id="style45095">.cls-1{fill:none;stroke:#000;stroke-linecap:square;stroke-miterlimit:10;stroke-width:16px;}</style><style
       id="style45131">.cls-1{fill:none;stroke:#000;stroke-linecap:square;stroke-miterlimit:10;stroke-width:16px;}</style></defs><sodipodi:namedview
     pagecolor="#ffffff"
     bordercolor="#666666"
     borderopacity="1"
     objecttolerance="10"
     gridtolerance="10"
     guidetolerance="10"
     inkscape:pageopacity="0"
     inkscape:pageshadow="2"
     inkscape:window-width="1590"
     inkscape:window-height="825"
     id="namedview8677"
     showgrid="false"
     inkscape:showpageshadow="false"
     inkscape:pagecheckerboard="true"
     inkscape:zoom="16"
     inkscape:cx="-2.252603"
     inkscape:cy="15.409556"
     inkscape:window-x="120"
     inkscape:window-y="303"
     inkscape:window-maximized="0"
     inkscape:current-layer="Capa_1" /><g
     id="g8646"
     transform="translate(0,-283.51756)" /><g
     id="g8648"
     transform="translate(0,-283.51756)" /><g
     id="g8650"
     transform="translate(0,-283.51756)" /><g
     id="g8652"
     transform="translate(0,-283.51756)" /><g
     id="g8654"
     transform="translate(0,-283.51756)" /><g
     id="g8656"
     transform="translate(0,-283.51756)" /><g
     id="g8658"
     transform="translate(0,-283.51756)" /><g
     id="g8660"
     transform="translate(0,-283.51756)" /><g
     id="g8662"
     transform="translate(0,-283.51756)" /><g
     id="g8664"
     transform="translate(0,-283.51756)" /><g
     id="g8666"
     transform="translate(0,-283.51756)" /><g
     id="g8668"
     transform="translate(0,-283.51756)" /><g
     id="g8670"
     transform="translate(0,-283.51756)" /><g
     id="g8672"
     transform="translate(0,-283.51756)" /><g
     id="g8674"
     transform="translate(0,-283.51756)" /><g
     style="stroke-width:18.28572083"
     id="g13170"
     transform="matrix(0.03070211,0,0,0.03070211,1.0388435e-5,-3.7359484)" /><g
     style="stroke-width:18.28572083"
     id="g13172"
     transform="matrix(0.03070211,0,0,0.03070211,1.0388435e-5,-3.7359484)" /><g
     style="stroke-width:18.28572083"
     id="g13174"
     transform="matrix(0.03070211,0,0,0.03070211,1.0388435e-5,-3.7359484)" /><g
     style="stroke-width:18.28572083"
     id="g13176"
     transform="matrix(0.03070211,0,0,0.03070211,1.0388435e-5,-3.7359484)" /><g
     style="stroke-width:18.28572083"
     id="g13178"
     transform="matrix(0.03070211,0,0,0.03070211,1.0388435e-5,-3.7359484)" /><g
     style="stroke-width:18.28572083"
     id="g13180"
     transform="matrix(0.03070211,0,0,0.03070211,1.0388435e-5,-3.7359484)" /><g
     style="stroke-width:18.28572083"
     id="g13182"
     transform="matrix(0.03070211,0,0,0.03070211,1.0388435e-5,-3.7359484)" /><g
     style="stroke-width:18.28572083"
     id="g13184"
     transform="matrix(0.03070211,0,0,0.03070211,1.0388435e-5,-3.7359484)" /><g
     style="stroke-width:18.28572083"
     id="g13186"
     transform="matrix(0.03070211,0,0,0.03070211,1.0388435e-5,-3.7359484)" /><g
     style="stroke-width:18.28572083"
     id="g13188"
     transform="matrix(0.03070211,0,0,0.03070211,1.0388435e-5,-3.7359484)" /><g
     style="stroke-width:18.28572083"
     id="g13190"
     transform="matrix(0.03070211,0,0,0.03070211,1.0388435e-5,-3.7359484)" /><g
     style="stroke-width:18.28572083"
     id="g13192"
     transform="matrix(0.03070211,0,0,0.03070211,1.0388435e-5,-3.7359484)" /><g
     style="stroke-width:18.28572083"
     id="g13194"
     transform="matrix(0.03070211,0,0,0.03070211,1.0388435e-5,-3.7359484)" /><g
     style="stroke-width:18.28572083"
     id="g13196"
     transform="matrix(0.03070211,0,0,0.03070211,1.0388435e-5,-3.7359484)" /><g
     style="stroke-width:18.28572083"
     id="g13198"
     transform="matrix(0.03070211,0,0,0.03070211,1.0388435e-5,-3.7359484)" /><rect
     style="opacity:1;fill:#ffffff;fill-opacity:1;stroke:#ffffff;stroke-width:0.2;stroke-linecap:butt;stroke-linejoin:miter;stroke-miterlimit:4;stroke-dasharray:none;stroke-dashoffset:7.4000001;stroke-opacity:1;paint-order:normal"
     id="rect26981-7-1"
     width="16.799999"
     height="2.8"
     x="4.1000023"
     y="-12.9"
     transform="rotate(90)" /><rect
     style="opacity:1;fill:#ffffff;fill-opacity:1;stroke:#ffffff;stroke-width:0.2;stroke-linecap:butt;stroke-linejoin:miter;stroke-miterlimit:4;stroke-dasharray:none;stroke-dashoffset:7.4000001;stroke-opacity:1;paint-order:normal"
     id="rect26981-7-1-3"
     width="18.800001"
     height="2.8"
     x="2.0999999"
     y="-4.9000025"
     transform="scale(1,-1)" /><rect
     style="opacity:1;fill:#ffffff;fill-opacity:1;stroke:#ffffff;stroke-width:0.20000002;stroke-linecap:butt;stroke-linejoin:miter;stroke-miterlimit:4;stroke-dasharray:none;stroke-dashoffset:7.4000001;stroke-opacity:1;paint-order:normal"
     id="rect26981-7-1-3-8"
     width="9.7999992"
     height="2.8"
     x="6.1000004"
     y="-21.9"
     transform="scale(1,-1)" /><rect
     style="opacity:1;fill:#ffffff;fill-opacity:1;stroke:#ffffff;stroke-width:0.20000002;stroke-linecap:butt;stroke-linejoin:miter;stroke-miterlimit:4;stroke-dasharray:none;stroke-dashoffset:7.4000001;stroke-opacity:1;paint-order:normal"
     id="rect26981-7-1-0"
     width="3.8"
     height="2.8"
     x="-7.900002"
     y="-4.9000001"
     transform="matrix(0,-1,-1,0,0,0)" /><rect
     style="opacity:1;fill:#ffffff;fill-opacity:1;stroke:#ffffff;stroke-width:0.20000002;stroke-linecap:butt;stroke-linejoin:miter;stroke-miterlimit:4;stroke-dasharray:none;stroke-dashoffset:7.4000001;stroke-opacity:1;paint-order:normal"
     id="rect26981-7-1-0-3"
     width="3.8"
     height="2.8"
     x="-7.900002"
     y="-20.9"
     transform="matrix(0,-1,-1,0,0,0)" /><rect
     style="opacity:1;fill:#ffffff;fill-opacity:1;stroke:#ffffff;stroke-width:0.20000002;stroke-linecap:butt;stroke-linejoin:miter;stroke-miterlimit:4;stroke-dasharray:none;stroke-dashoffset:7.4000001;stroke-opacity:1;paint-order:normal"
     id="rect26981-7-1-3-8-4"
     width="2.8"
     height="2.8"
     x="18.1"
     y="-21.9"
     transform="scale(1,-1)" /></svg>