<svg width="24" height="24" version="1.1" viewBox="0 0 24 24" xmlns="http://www.w3.org/2000/svg">
 <defs>
  <style>.cls-1{fill:#fff;}</style>
 </defs>
 <path d="m1.5137 0.99985c-0.81746 0-1.5137 0.69621-1.5137 1.5137v18.971c0 0.81745 0.69621 1.5156 1.5137 1.5156h20.973c0.81746 0 1.5137-0.69817 1.5137-1.5156v-18.971c0-0.81746-0.69621-1.5137-1.5137-1.5137zm0.48633 1.9998h20v18h-20z" color="#000000" color-rendering="auto" dominant-baseline="auto" fill="#fff" image-rendering="auto" shape-rendering="auto" solid-color="#000000" style="font-feature-settings:normal;font-variant-alternates:normal;font-variant-caps:normal;font-variant-ligatures:normal;font-variant-numeric:normal;font-variant-position:normal;isolation:auto;mix-blend-mode:normal;paint-order:normal;shape-padding:0;text-decoration-color:#000000;text-decoration-line:none;text-decoration-style:solid;text-indent:0;text-orientation:mixed;text-transform:none;white-space:normal"/>
 <path d="m18.148 5.0551c-12.006 17.835-6.003 8.9176 0 0zm1.8515 3.2007c-13.24 15.701-6.6201 7.8507 0 0zm0 5.3867v0zm-12.857-8.5873c-4.6687 17.835-2.3344 8.9176 0 0zm5.5676 0c-8.3804 17.835-4.1902 8.9176 0 0zm0 0-8.6973 8.5395-0.012926 2.3101 11.101-10.837zm-3.2181 0.047944-2.3495-0.047944-3.1427 3.1223v2.3515zm-5.0912 13.893 2.2546-0.011111 13.336-13.428 0.0086-0.5051-1.6705-0.052756zm4.9683 0.0035 2.3408-0.01479 8.264-8.3696 0.02589-2.3624zm5.0028-0.0035 2.4163-0.01111 3.2116-3.0504v-2.2949z" color="#000000" color-rendering="auto" dominant-baseline="auto" fill="#fefefe" image-rendering="auto" shape-rendering="auto" solid-color="#000000" style="font-feature-settings:normal;font-variant-alternates:normal;font-variant-caps:normal;font-variant-ligatures:normal;font-variant-numeric:normal;font-variant-position:normal;isolation:auto;mix-blend-mode:normal;shape-padding:0;text-decoration-color:#000000;text-decoration-line:none;text-decoration-style:solid;text-indent:0;text-orientation:mixed;text-transform:none;white-space:normal"/>
</svg>
