<?xml version="1.0" encoding="UTF-8" standalone="no"?>
<!-- Generator: Adobe Illustrator 16.0.0, SVG Export Plug-In . SVG Version: 6.00 Build 0)  -->

<svg
   xmlns:dc="http://purl.org/dc/elements/1.1/"
   xmlns:cc="http://creativecommons.org/ns#"
   xmlns:rdf="http://www.w3.org/1999/02/22-rdf-syntax-ns#"
   xmlns:svg="http://www.w3.org/2000/svg"
   xmlns="http://www.w3.org/2000/svg"
   xmlns:sodipodi="http://sodipodi.sourceforge.net/DTD/sodipodi-0.dtd"
   xmlns:inkscape="http://www.inkscape.org/namespaces/inkscape"
   version="1.1"
   id="Capa_1"
   x="0px"
   y="0px"
   width="28"
   height="28"
   viewBox="0 0 28 28"
   xml:space="preserve"
   sodipodi:docname="adjust.svg"
   inkscape:version="0.92.1 r15371"><metadata
     id="metadata8681"><rdf:RDF><cc:Work
         rdf:about=""><dc:format>image/svg+xml</dc:format><dc:type
           rdf:resource="http://purl.org/dc/dcmitype/StillImage" /><dc:title></dc:title></cc:Work></rdf:RDF></metadata><defs
     id="defs8679" /><sodipodi:namedview
     pagecolor="#ffffff"
     bordercolor="#666666"
     borderopacity="1"
     objecttolerance="10"
     gridtolerance="10"
     guidetolerance="10"
     inkscape:pageopacity="0"
     inkscape:pageshadow="2"
     inkscape:window-width="1821"
     inkscape:window-height="924"
     id="namedview8677"
     showgrid="false"
     inkscape:showpageshadow="false"
     inkscape:pagecheckerboard="true"
     inkscape:zoom="16"
     inkscape:cx="36.137522"
     inkscape:cy="13.532389"
     inkscape:window-x="3576"
     inkscape:window-y="315"
     inkscape:window-maximized="0"
     inkscape:current-layer="Capa_1" /><g
     id="g8646"
     transform="translate(0,-279.51756)" /><g
     id="g8648"
     transform="translate(0,-279.51756)" /><g
     id="g8650"
     transform="translate(0,-279.51756)" /><g
     id="g8652"
     transform="translate(0,-279.51756)" /><g
     id="g8654"
     transform="translate(0,-279.51756)" /><g
     id="g8656"
     transform="translate(0,-279.51756)" /><g
     id="g8658"
     transform="translate(0,-279.51756)" /><g
     id="g8660"
     transform="translate(0,-279.51756)" /><g
     id="g8662"
     transform="translate(0,-279.51756)" /><g
     id="g8664"
     transform="translate(0,-279.51756)" /><g
     id="g8666"
     transform="translate(0,-279.51756)" /><g
     id="g8668"
     transform="translate(0,-279.51756)" /><g
     id="g8670"
     transform="translate(0,-279.51756)" /><g
     id="g8672"
     transform="translate(0,-279.51756)" /><g
     id="g8674"
     transform="translate(0,-279.51756)" /><g
     style="stroke-width:18.28572083"
     id="g13170"
     transform="matrix(0.03070211,0,0,0.03070211,1.0388435e-5,0.26405155)" /><g
     style="stroke-width:18.28572083"
     id="g13172"
     transform="matrix(0.03070211,0,0,0.03070211,1.0388435e-5,0.26405155)" /><g
     style="stroke-width:18.28572083"
     id="g13174"
     transform="matrix(0.03070211,0,0,0.03070211,1.0388435e-5,0.26405155)" /><g
     style="stroke-width:18.28572083"
     id="g13176"
     transform="matrix(0.03070211,0,0,0.03070211,1.0388435e-5,0.26405155)" /><g
     style="stroke-width:18.28572083"
     id="g13178"
     transform="matrix(0.03070211,0,0,0.03070211,1.0388435e-5,0.26405155)" /><g
     style="stroke-width:18.28572083"
     id="g13180"
     transform="matrix(0.03070211,0,0,0.03070211,1.0388435e-5,0.26405155)" /><g
     style="stroke-width:18.28572083"
     id="g13182"
     transform="matrix(0.03070211,0,0,0.03070211,1.0388435e-5,0.26405155)" /><g
     style="stroke-width:18.28572083"
     id="g13184"
     transform="matrix(0.03070211,0,0,0.03070211,1.0388435e-5,0.26405155)" /><g
     style="stroke-width:18.28572083"
     id="g13186"
     transform="matrix(0.03070211,0,0,0.03070211,1.0388435e-5,0.26405155)" /><g
     style="stroke-width:18.28572083"
     id="g13188"
     transform="matrix(0.03070211,0,0,0.03070211,1.0388435e-5,0.26405155)" /><g
     style="stroke-width:18.28572083"
     id="g13190"
     transform="matrix(0.03070211,0,0,0.03070211,1.0388435e-5,0.26405155)" /><g
     style="stroke-width:18.28572083"
     id="g13192"
     transform="matrix(0.03070211,0,0,0.03070211,1.0388435e-5,0.26405155)" /><g
     style="stroke-width:18.28572083"
     id="g13194"
     transform="matrix(0.03070211,0,0,0.03070211,1.0388435e-5,0.26405155)" /><g
     style="stroke-width:18.28572083"
     id="g13196"
     transform="matrix(0.03070211,0,0,0.03070211,1.0388435e-5,0.26405155)" /><g
     style="stroke-width:18.28572083"
     id="g13198"
     transform="matrix(0.03070211,0,0,0.03070211,1.0388435e-5,0.26405155)" /><path
     style="fill:#ffffff;stroke-width:10.45730495"
     inkscape:connector-curvature="0"
     d="m 28,13.992992 c 0,-0.196798 -0.08807,-0.381583 -0.240191,-0.505726 l -2.95092,-2.390757 1.365086,-3.5492349 c 0.07034,-0.1836404 0.05376,-0.388448 -0.04461,-0.5595023 -0.09836,-0.1699102 -0.267069,-0.2860441 -0.46151,-0.3169369 L 21.912869,6.0781515 21.319826,2.326397 C 21.289516,2.1330311 21.173424,1.9631209 21.003574,1.8647218 20.833725,1.7663226 20.629562,1.7491599 20.444844,1.820671 L 16.897449,3.1822409 14.505831,0.22912154 c -0.248197,-0.3060672 -0.762893,-0.30492302 -1.009946,0 L 11.103695,3.182813 7.5551563,1.8212431 C 7.3715816,1.749732 7.1662754,1.7668947 6.9975696,1.8652938 6.8260045,1.963693 6.710484,2.1330311 6.6796023,2.326969 L 6.0865589,6.0787236 2.3321421,6.671407 C 2.1388454,6.7022997 1.9689959,6.8178616 1.8706319,6.9883439 1.7734117,7.1593982 1.7568271,7.3636337 1.8271688,7.5478461 L 3.1922552,11.097081 0.24190703,13.487838 C 0.0880703,13.611409 2.0586e-7,13.796194 2.0586e-7,13.993564 c 0,0.197371 0.08807009414,0.381583 0.24190682414,0.505726 l 2.95034817,2.391329 -1.3650864,3.549235 c -0.070342,0.181924 -0.053757,0.388448 0.043463,0.55893 0.098364,0.169911 0.2682135,0.287189 0.4615102,0.318081 l 3.7544168,0.59154 0.5930434,3.75347 c 0.030882,0.193366 0.1469741,0.363276 0.3179673,0.461676 0.1687058,0.0984 0.3722964,0.114989 0.5564429,0.04405 l 3.5496826,-1.360997 2.391618,2.952547 C 13.61884,27.912471 13.803558,28 14.000858,28 c 0.195584,0 0.381446,-0.08753 0.504973,-0.240277 l 2.391618,-2.953119 3.548539,1.360997 c 0.180715,0.07094 0.387737,0.05435 0.557586,-0.04405 0.16985,-0.0984 0.285942,-0.26831 0.316252,-0.461676 l 0.593043,-3.75347 3.754989,-0.59154 c 0.194441,-0.03089 0.363146,-0.14817 0.46151,-0.318081 0.09836,-0.170482 0.114949,-0.37529 0.04461,-0.55893 l -1.365086,-3.549807 2.952064,-2.391329 C 27.91193,14.373431 28,14.18979 28,13.992992 Z M 14.000858,24 C 8.9688529,24 4,19.03266 4,14 4,8.9661957 8.9688529,4 14.000858,4 19.032863,4 24,8.9661957 24,14 c 0,5.033804 -4.967137,10 -9.999142,10 z"
     id="path13315"
     sodipodi:nodetypes="sccccccccccccccccccccccscccccccccccscccccccccccssssss" /><path
     style="fill:#ffffff;stroke-width:10.45730495"
     inkscape:connector-curvature="0"
     d="m 13.472897,7.0000002 c -3.5703577,0 -6.4728972,3.1397928 -6.4728972,6.9997488 C 6.9999998,17.860709 9.9043978,21 13.472897,21 13.764081,21 14,20.74488 14,20.429493 V 7.5700042 c 0,-0.3143811 -0.235919,-0.570004 -0.527103,-0.570004 z"
     id="path13317" /></svg>