<?xml version="1.0" encoding="UTF-8" standalone="no"?>
<svg
   xmlns:dc="http://purl.org/dc/elements/1.1/"
   xmlns:cc="http://creativecommons.org/ns#"
   xmlns:rdf="http://www.w3.org/1999/02/22-rdf-syntax-ns#"
   xmlns:svg="http://www.w3.org/2000/svg"
   xmlns="http://www.w3.org/2000/svg"
   xmlns:sodipodi="http://sodipodi.sourceforge.net/DTD/sodipodi-0.dtd"
   xmlns:inkscape="http://www.inkscape.org/namespaces/inkscape"
   width="24"
   height="24"
   version="1.1"
   viewBox="0 0 24 24"
   id="svg35973"
   sodipodi:docname="clone.svg"
   inkscape:version="0.92.1 r15371">
  <metadata
     id="metadata35979">
    <rdf:RDF>
      <cc:Work
         rdf:about="">
        <dc:format>image/svg+xml</dc:format>
        <dc:type
           rdf:resource="http://purl.org/dc/dcmitype/StillImage" />
        <dc:title></dc:title>
      </cc:Work>
    </rdf:RDF>
  </metadata>
  <defs
     id="defs35977" />
  <sodipodi:namedview
     pagecolor="#ffffff"
     bordercolor="#666666"
     borderopacity="1"
     objecttolerance="10"
     gridtolerance="10"
     guidetolerance="10"
     inkscape:pageopacity="0"
     inkscape:pageshadow="2"
     inkscape:window-width="1465"
     inkscape:window-height="985"
     id="namedview35975"
     showgrid="false"
     inkscape:pagecheckerboard="true"
     inkscape:zoom="7.375"
     inkscape:cx="-30.101695"
     inkscape:cy="16"
     inkscape:window-x="288"
     inkscape:window-y="274"
     inkscape:window-maximized="0"
     inkscape:current-layer="svg35973" />
  <g
     transform="matrix(0.62499802,0,0,0.68748744,2.000052,-197.36631)"
     id="g35971"
     style="stroke-width:1.52555633">
    <g
       transform="matrix(0.4107,0,0,0.41124,-2.5463,286.2)"
       id="g35969"
       style="fill:#ffffff;stroke-width:1.52555633">
      <path
         d="m 6.2,73.773 v -2.7664 c 0.2,-2.7664 0,-5.6316 0.6,-8.2992 1.2,-5.0388 4.662,-6.3383 10.346,-7.1721 6.8521,-0.73493 6.9173,-0.67851 14.154,-1.2158 3.639,-0.18869 7.1268,-2.1247 8,-5.1477 1.1,-4.0508 0.4,-7.904 -1.7,-11.461 -1.4,-2.2724 -3,-4.5448 -4.6,-6.6196 -4.1,-5.2364 -4.5,-10.967 -2,-16.895 1.9,-4.7424 6,-7.2124 11,-8.2004 3.6,-0.6916 7.1,-0.1976 10.4,1.1856 9.4,3.952 10.8,16.302 5.9,22.922 -1.9,2.6676 -3.9,5.3352 -5.6,8.1016 -1.8,2.964 -2.4,6.2244 -1.8,9.5836 0.8,4.446 3.2,6.6297 7.7,6.5309 6.6739,0.52789 6.8411,0.57885 15.546,1.2158 5.5,0.988 9.1537,3.1212 9.7537,8.6541 0.3,2.964 0.2,6.0268 0.2,9.0896 0,0.0988 -0.1,0.1976 -0.1,0.3952 -25.8,0.0988 -51.7,0.0988 -77.8,0.0988 z"
         id="path35965"
         inkscape:connector-curvature="0"
         style="stroke-width:1.51637256" />
      <path
         d="m 79.203,78.637 c 0,0.86286 0.09664,1.7257 0,2.5101 -0.19329,1.4904 -1.4496,2.3532 -3.3825,2.3532 h -26.384 -34.502 c -2.8027,0 -3.8657,-0.86286 -3.8657,-3.0592 v -1.7257 c 22.711,-0.07844 45.326,-0.07844 68.134,-0.07844 z"
         id="path35967"
         inkscape:connector-curvature="0"
         style="stroke-width:1.32827139" />
    </g>
  </g>
</svg>
