<?xml version="1.0" encoding="UTF-8" standalone="no"?>
<svg
   xmlns:dc="http://purl.org/dc/elements/1.1/"
   xmlns:cc="http://creativecommons.org/ns#"
   xmlns:rdf="http://www.w3.org/1999/02/22-rdf-syntax-ns#"
   xmlns:svg="http://www.w3.org/2000/svg"
   xmlns="http://www.w3.org/2000/svg"
   xmlns:sodipodi="http://sodipodi.sourceforge.net/DTD/sodipodi-0.dtd"
   xmlns:inkscape="http://www.inkscape.org/namespaces/inkscape"
   version="1.1"
   id="Capa_1"
   x="0px"
   y="0px"
   viewBox="0 0 24 24"
   xml:space="preserve"
   width="24"
   height="24"
   sodipodi:docname="cutout.svg"
   inkscape:version="0.92.1 r15371"><metadata
     id="metadata8430"><rdf:RDF><cc:Work
         rdf:about=""><dc:format>image/svg+xml</dc:format><dc:type
           rdf:resource="http://purl.org/dc/dcmitype/StillImage" /><dc:title></dc:title></cc:Work></rdf:RDF></metadata><defs
     id="defs8428" /><sodipodi:namedview
     pagecolor="#ffffff"
     bordercolor="#666666"
     borderopacity="1"
     objecttolerance="10"
     gridtolerance="10"
     guidetolerance="10"
     inkscape:pageopacity="0"
     inkscape:pageshadow="2"
     inkscape:window-width="3440"
     inkscape:window-height="1377"
     id="namedview8426"
     showgrid="false"
     inkscape:pagecheckerboard="true"
     inkscape:zoom="37.75"
     inkscape:cx="18.079012"
     inkscape:cy="14.76703"
     inkscape:window-x="-8"
     inkscape:window-y="-8"
     inkscape:window-maximized="1"
     inkscape:current-layer="Capa_1" /><g
     id="g8423"
     transform="matrix(0.05468748,0,0,0.05495022,-1.6777054e-4,-4.5671898)"
     style="stroke-width:18.2419529"><g
       id="g8421"
       style="stroke-width:18.2419529"><g
         id="g8419"
         style="stroke-width:18.2419529" /></g></g><g
     transform="matrix(0.14268185,0,0,0.16489606,2,0.44320837)"
     id="g68242"
     style="stroke-width:23.81344986"><g
       id="g68240"
       style="stroke-width:23.81344986"><g
         id="_x36_5._Cut"
         style="stroke-width:23.81344986"><g
           id="g68237"
           style="stroke-width:23.81344986"><path
             style="fill:#ffffff;stroke-width:23.81344986"
             inkscape:connector-curvature="0"
             d="m 112.137,80.731 c -3.535,0 -6.906,0.682 -10.02,1.876 L 85.465,66.355 116.076,36.476 c 5.54,-5.407 10.029,-16.067 10.029,-23.808 v -1.983 c 0,-7.741 -4.489,-9.633 -10.029,-4.227 L 70.085,51.346 24.095,6.459 C 18.554,1.052 14.063,2.944 14.063,10.686 v 1.979 c 0,7.741 4.492,18.401 10.032,23.808 L 54.704,66.347 38.053,82.601 C 34.939,81.41 31.57,80.732 28.034,80.732 12.549,80.731 0,93.277 0,108.767 c 0,15.481 12.549,28.027 28.034,28.027 15.482,0 28.034,-12.546 28.034,-28.027 0,-4.052 -0.876,-7.885 -2.417,-11.362 L 70.086,81.362 86.52,97.405 c -1.54,3.471 -2.416,7.311 -2.416,11.362 0,15.481 12.549,28.027 28.034,28.027 15.481,0 28.034,-12.546 28.034,-28.027 -0.001,-15.49 -12.553,-28.036 -28.035,-28.036 z m -84.103,42.045 c -7.741,0 -14.017,-6.27 -14.017,-14.01 0,-7.748 6.276,-14.018 14.017,-14.018 7.741,0 14.017,6.27 14.017,14.018 0,7.741 -6.276,14.01 -14.017,14.01 z m 84.103,0 c -7.741,0 -14.018,-6.27 -14.018,-14.01 0,-7.748 6.276,-14.018 14.018,-14.018 7.742,0 14.018,6.27 14.018,14.018 0,7.741 -6.277,14.01 -14.018,14.01 z"
             data-original="#000000"
             class="active-path"
             data-old_color="#ffffff"
             id="path68235" /></g></g></g></g></svg>