<svg class="" width="24" height="24" version="1.1" viewBox="0 0 24 24" xml:space="preserve" xmlns="http://www.w3.org/2000/svg">
  

  

  

  <g transform="matrix(-.26609 0 0 .25465 25.305 -.23239)" fill="#fff" stroke-width="3.8416">
    <path d="m80.057 64.455c0-0.138-4e-3 -0.271-9e-3 -0.404-5e-3 -0.04-5e-3 -0.078-5e-3 -0.116-0.038-1.011-0.133-2.006-0.26-2.987-2.694-20.625-23.785-49.052-28.745-55.5-0.662-0.86-1.456-0.808-2.193 0.154-5.162 6.717-25.95 34.876-28.63 55.346-0.133 0.981-0.218 1.977-0.26 2.987 0 0.038 0 0.076-5e-3 0.116 0 0.133-4e-3 0.267-9e-3 0.404 0 0.215-5e-3 0.423-5e-3 0.636 0 0.208 5e-3 0.413 5e-3 0.614 0.33 16.319 13.655 29.455 30.057 29.455 16.611 0 30.068-13.46 30.068-30.069 0-0.213-4e-3 -0.421-9e-3 -0.636z" fill="#fff" stroke-width="3.8416"/>

  </g>

</svg>
