<?xml version="1.0" encoding="UTF-8" standalone="no"?>
<svg
   xmlns:dc="http://purl.org/dc/elements/1.1/"
   xmlns:cc="http://creativecommons.org/ns#"
   xmlns:rdf="http://www.w3.org/1999/02/22-rdf-syntax-ns#"
   xmlns:svg="http://www.w3.org/2000/svg"
   xmlns="http://www.w3.org/2000/svg"
   xmlns:sodipodi="http://sodipodi.sourceforge.net/DTD/sodipodi-0.dtd"
   xmlns:inkscape="http://www.inkscape.org/namespaces/inkscape"
   width="24"
   height="24"
   version="1.1"
   viewBox="0 0 24 24"
   xml:space="preserve"
   id="svg26991"
   sodipodi:docname="draw.svg"
   inkscape:version="0.92.1 r15371"><metadata
     id="metadata26997"><rdf:RDF><cc:Work
         rdf:about=""><dc:format>image/svg+xml</dc:format><dc:type
           rdf:resource="http://purl.org/dc/dcmitype/StillImage" /><dc:title></dc:title></cc:Work></rdf:RDF></metadata><defs
     id="defs26995" /><sodipodi:namedview
     pagecolor="#ffffff"
     bordercolor="#666666"
     borderopacity="1"
     objecttolerance="10"
     gridtolerance="10"
     guidetolerance="10"
     inkscape:pageopacity="0"
     inkscape:pageshadow="2"
     inkscape:window-width="1488"
     inkscape:window-height="1066"
     id="namedview26993"
     showgrid="false"
     inkscape:pagecheckerboard="true"
     inkscape:zoom="9.8333333"
     inkscape:cx="19.303781"
     inkscape:cy="29.737963"
     inkscape:window-x="0"
     inkscape:window-y="0"
     inkscape:window-maximized="0"
     inkscape:current-layer="svg26991" /><g
     id="g26989"
     style="stroke-width:11.40086651"
     transform="matrix(1.1907417,0,0,1.2017331,-2.3815549,-2.4384276)"><g
       transform="matrix(0.040666,-0.0043618,-0.0043558,0.040804,4.2196,1.2078)"
       id="g26975"
       style="stroke-width:11.40086651"><g
         id="g26973"
         style="stroke-width:11.40086651"><path
           d="m 180.44,342.68 c -23.852,-23.852 -63.353,-34.368 -99.873,-18.984 -32.344,14.59 -53.481,46.978 -53.833,82.69 0,39.434 -6.87,71.147 -13.652,82.09 l -13.081,21.093 24.756,1.772 c 6.064,0.44 12.422,0.66 18.97,0.66 48.193,0 106.98,-12.1 138.72,-41.25 31.192,-29.068 34.803,-91.261 -2.008,-128.07 z"
           id="path26971"
           inkscape:connector-curvature="0"
           style="fill:#ffffff;stroke-width:11.40086651" /></g></g><g
       transform="matrix(0.040666,-0.0043618,-0.0043558,0.040804,4.2196,1.2078)"
       id="g26981"
       style="stroke-width:11.40086651"><g
         id="g26979"
         style="stroke-width:11.40086651"><path
           d="m 244.26,279.14 c -14.681,-14.688 -31.222,-26.187 -48.744,-34.531 -15.172,15.654 -29.929,31.505 -44.266,47.3 18.763,5.281 36.026,15.167 50.413,29.594 14.407,14.377 24.719,32.302 30.17,51.85 15.613,-14.143 31.317,-28.707 47.091,-43.885 -8.009,-18.305 -19.601,-35.678 -34.664,-50.328 z"
           id="path26977"
           inkscape:connector-curvature="0"
           style="fill:#ffffff;stroke-width:11.40086651" /></g></g><g
       transform="matrix(0.040666,-0.0043618,-0.0043558,0.040804,4.2196,1.2078)"
       id="g26987"
       style="stroke-width:11.40086651"><g
         id="g26985"
         style="stroke-width:11.40086651"><path
           d="M 440,72 C 428.765,60.779 405.24712,58.390202 334.73269,115.46927 281.29469,157.04127 277.062,162.43 218.89,220.599 l -1.185,1.185 -0.046,-0.027 -0.337,0.339 c 17.186,9.293 33.435,21.105 48.003,35.682 15.033,14.617 27.173,31.661 36.381,49.788 l 0.416,-0.408 -0.06,-0.101 1.672,-1.672 106.07841,-130.00668 C 467.59812,100.65951 451.263,83.265 439.998,71.995 Z"
           id="path26983"
           inkscape:connector-curvature="0"
           style="fill:#ffffff;stroke-width:11.40086651"
           sodipodi:nodetypes="cccccccccccccc" /></g></g></g></svg>