<?xml version="1.0" encoding="UTF-8" standalone="no"?>
<svg
   xmlns:dc="http://purl.org/dc/elements/1.1/"
   xmlns:cc="http://creativecommons.org/ns#"
   xmlns:rdf="http://www.w3.org/1999/02/22-rdf-syntax-ns#"
   xmlns:svg="http://www.w3.org/2000/svg"
   xmlns="http://www.w3.org/2000/svg"
   xmlns:sodipodi="http://sodipodi.sourceforge.net/DTD/sodipodi-0.dtd"
   xmlns:inkscape="http://www.inkscape.org/namespaces/inkscape"
   width="24"
   height="24"
   version="1.1"
   viewBox="0 0 24 24"
   id="svg35973"
   sodipodi:docname="fill.svg"
   inkscape:version="0.92.1 r15371">
  <metadata
     id="metadata35979">
    <rdf:RDF>
      <cc:Work
         rdf:about="">
        <dc:format>image/svg+xml</dc:format>
        <dc:type
           rdf:resource="http://purl.org/dc/dcmitype/StillImage" />
        <dc:title></dc:title>
      </cc:Work>
    </rdf:RDF>
  </metadata>
  <defs
     id="defs35977" />
  <sodipodi:namedview
     pagecolor="#ffffff"
     bordercolor="#666666"
     borderopacity="1"
     objecttolerance="10"
     gridtolerance="10"
     guidetolerance="10"
     inkscape:pageopacity="0"
     inkscape:pageshadow="2"
     inkscape:window-width="1831"
     inkscape:window-height="1244"
     id="namedview35975"
     showgrid="false"
     inkscape:pagecheckerboard="true"
     inkscape:zoom="7.375"
     inkscape:cx="-30.101695"
     inkscape:cy="16"
     inkscape:window-x="0"
     inkscape:window-y="0"
     inkscape:window-maximized="0"
     inkscape:current-layer="svg35973" />
  <g
     id="g40551"
     transform="matrix(0.90496135,0,0,0.89668616,-2.9863724,-0.56920078)"
     style="fill:#f4f4f4;fill-opacity:1;stroke-width:1.11010671">
    <g
       id="g40531"
       style="fill:#f4f4f4;fill-opacity:1;stroke-width:1.11010671">
      <path
         id="path40527"
         d="M 15.9,26.8 26.1,16.6 c 0.8,-0.8 0.8,-2 0,-2.8 L 14.5,2.2 c -0.6,-0.6 -1.4,-0.6 -2,0 v 0 c -0.6,0.6 -0.6,1.4 0,2 l 1,1 -9.6,9.6 c -0.8,0.8 -0.8,2 0,2.8 l 9.2,9.2 c 0.8,0.8 2,0.8 2.8,0 z m 0.3,-18.9 5.6,5.6 c 0.6,0.6 0.2,1.7 -0.7,1.7 H 9.9 C 9,15.2 8.6,14.1 9.2,13.5 l 5.6,-5.6 c 0.4,-0.4 1,-0.4 1.4,0 z"
         inkscape:connector-curvature="0"
         style="fill:#f4f4f4;fill-opacity:1;stroke-width:1.11010671" />
      <path
         id="path40529"
         d="m 27.5,26.2 c 1.8,0 2.9,-1.9 2,-3.5 l -2,-3.5 -2,3.5 c -0.9,1.6 0.2,3.5 2,3.5 z"
         inkscape:connector-curvature="0"
         style="fill:#f4f4f4;fill-opacity:1;stroke-width:1.11010671" />
    </g>
  </g>
</svg>
