<?xml version="1.0" encoding="UTF-8" standalone="no"?>
<svg
   xmlns:dc="http://purl.org/dc/elements/1.1/"
   xmlns:cc="http://creativecommons.org/ns#"
   xmlns:rdf="http://www.w3.org/1999/02/22-rdf-syntax-ns#"
   xmlns:svg="http://www.w3.org/2000/svg"
   xmlns="http://www.w3.org/2000/svg"
   xmlns:sodipodi="http://sodipodi.sourceforge.net/DTD/sodipodi-0.dtd"
   xmlns:inkscape="http://www.inkscape.org/namespaces/inkscape"
   width="24"
   height="24"
   version="1.1"
   viewBox="0 0 24 24"
   id="svg31482"
   sodipodi:docname="heal.svg"
   inkscape:version="0.92.1 r15371">
  <metadata
     id="metadata31488">
    <rdf:RDF>
      <cc:Work
         rdf:about="">
        <dc:format>image/svg+xml</dc:format>
        <dc:type
           rdf:resource="http://purl.org/dc/dcmitype/StillImage" />
        <dc:title />
      </cc:Work>
    </rdf:RDF>
  </metadata>
  <defs
     id="defs31486" />
  <sodipodi:namedview
     pagecolor="#ffffff"
     bordercolor="#666666"
     borderopacity="1"
     objecttolerance="10"
     gridtolerance="10"
     guidetolerance="10"
     inkscape:pageopacity="0"
     inkscape:pageshadow="2"
     inkscape:window-width="1676"
     inkscape:window-height="1115"
     id="namedview31484"
     showgrid="false"
     inkscape:pagecheckerboard="true"
     inkscape:zoom="7.375"
     inkscape:cx="-30.101695"
     inkscape:cy="16"
     inkscape:window-x="152"
     inkscape:window-y="143"
     inkscape:window-maximized="0"
     inkscape:current-layer="svg31482" />
  <g
     transform="matrix(2.3622042,0,0,2.3622042,1.9999037,-679.57552)"
     id="g31480"
     style="stroke-width:0.42333341">
    <g
       transform="matrix(0.094228,0,0,0.094228,0.82463,299.94)"
       id="g31478"
       style="fill:#ffffff;stroke-width:0.42333341">
      <g
         id="g31476"
         style="fill:#ffffff;stroke-width:0.42333341">
        <path
           d="m 75.192,-115.14 c -7.88,-7.88 -20.655,-7.88 -28.535,0 l -49.498,49.498 c -7.88,7.88 -7.88,20.655 0,28.535 7.88,7.88 20.655,7.88 28.535,0 l 49.498,-49.498 c 7.88,-7.88 7.88,-20.655 0,-28.535 z m -52.48,47.534 c -1.891,1.891 -4.957,1.891 -6.848,0 -1.891,-1.891 -1.891,-4.957 0,-6.848 1.891,-1.891 4.957,-1.891 6.848,0 1.891,1.891 1.891,4.957 0,6.848 z m 4.143,-17.839 c 1.891,-1.891 4.957,-1.891 6.848,0 1.891,1.891 1.891,4.957 0,6.848 -1.891,1.891 -4.957,1.891 -6.848,0 -1.891,-1.891 -1.892,-4.957 0,-6.848 z m 7.651,29.634 c -1.891,1.891 -4.957,1.891 -6.848,0 -1.891,-1.891 -1.891,-4.957 0,-6.848 1.891,-1.891 4.957,-1.891 6.848,0 1.891,1.89 1.891,4.957 0,6.848 z M 37.55,-96.14 c 1.891,-1.891 4.957,-1.891 6.848,0 1.891,1.891 1.891,4.957 0,6.848 -1.891,1.891 -4.957,1.891 -6.848,0 -1.891,-1.891 -1.891,-4.957 0,-6.848 z m 7.947,29.338 c -1.891,1.891 -4.957,1.891 -6.848,0 -1.891,-1.891 -1.891,-4.957 0,-6.848 1.891,-1.891 4.957,-1.891 6.848,0 1.891,1.89 1.891,4.957 0,6.848 z m 10.696,-10.696 c -1.891,1.891 -4.957,1.891 -6.848,0 -1.891,-1.891 -1.891,-4.957 0,-6.848 1.891,-1.891 4.957,-1.891 6.848,0 1.891,1.891 1.891,4.957 0,6.848 z"
           id="path31474"
           inkscape:connector-curvature="0"
           style="fill:#ffffff;stroke-width:0.42333341" />
      </g>
    </g>
  </g>
</svg>
