<?xml version="1.0" encoding="UTF-8" standalone="no"?>
<svg
   xmlns:osb="http://www.openswatchbook.org/uri/2009/osb"
   xmlns:dc="http://purl.org/dc/elements/1.1/"
   xmlns:cc="http://creativecommons.org/ns#"
   xmlns:rdf="http://www.w3.org/1999/02/22-rdf-syntax-ns#"
   xmlns:svg="http://www.w3.org/2000/svg"
   xmlns="http://www.w3.org/2000/svg"
   xmlns:sodipodi="http://sodipodi.sourceforge.net/DTD/sodipodi-0.dtd"
   xmlns:inkscape="http://www.inkscape.org/namespaces/inkscape"
   inkscape:version="1.0beta1 (fe3e306, 2019-09-17)"
   sodipodi:docname="lasso.svg"
   id="svg8"
   version="1.1"
   viewBox="0 0 24 24"
   height="24"
   width="24">
  <defs
     id="defs2">
    <linearGradient
       osb:paint="solid"
       id="linearGradient13007">
      <stop
         id="stop13005"
         offset="0"
         style="stop-color:#ffffff;stop-opacity:1;" />
    </linearGradient>
    <style
       id="style13067">.cls-1{fill:#fff;}</style>
  </defs>
  <sodipodi:namedview
     inkscape:document-rotation="0"
     showguides="false"
     inkscape:window-maximized="0"
     inkscape:window-y="0"
     inkscape:window-x="0"
     inkscape:window-height="1368"
     inkscape:window-width="1718"
     units="px"
     inkscape:pagecheckerboard="true"
     inkscape:showpageshadow="false"
     showgrid="false"
     inkscape:current-layer="layer1"
     inkscape:document-units="px"
     inkscape:cy="19.272773"
     inkscape:cx="17.153161"
     inkscape:zoom="21.021695"
     inkscape:pageshadow="2"
     inkscape:pageopacity="0.0"
     borderopacity="1.0"
     bordercolor="#666666"
     pagecolor="#ffffff"
     id="base" />
  <metadata
     id="metadata5">
    <rdf:RDF>
      <cc:Work
         rdf:about="">
        <dc:format>image/svg+xml</dc:format>
        <dc:type
           rdf:resource="http://purl.org/dc/dcmitype/StillImage" />
        <dc:title></dc:title>
      </cc:Work>
    </rdf:RDF>
  </metadata>
  <g
     transform="translate(0,-290.64999)"
     id="layer1"
     inkscape:groupmode="layer"
     inkscape:label="Layer 1">
    <g
       style="fill:#ffffff;fill-opacity:1;stroke-width:13.49435139"
       transform="matrix(0.07410526,0,0,0.07410491,1,291.701)"
       id="g17942">
      <path
         style="fill:#ffffff;fill-opacity:1;stroke-width:13.49435139;stroke:none;stroke-opacity:1"
         inkscape:connector-curvature="0"
         d="M 296.875,124.438 C 296.875,56.093 230.473,0.688 148.458,0.688 66.443,0.688 0,56.092 0,124.438 c 0,49.01 34.212,91.363 83.799,111.406 2.043,15.549 15.384,27.594 31.481,27.594 11.514,0 21.621,-6.162 27.188,-15.361 2.013,0.067 3.87,0.111 5.904,0.111 6.093,0 11.836,-0.313 17.836,-0.907 v 33.907 c 0,8.284 6.716,15 15,15 8.284,0 15,-6.716 15,-15 v -39.611 c 58,-16.631 100.667,-62.792 100.667,-117.139 z m -148.5,93.75 c -3.651,0 -7.19,-0.137 -10.779,-0.395 -1.742,-0.708 -3.601,-1.105 -5.596,-1.105 -0.943,0 -2.007,0.098 -2.902,0.264 -5.352,-0.692 -10.89,-1.668 -15.89,-2.927 v -6.337 c 0,-14.612 11.888,-26.5 26.5,-26.5 14.612,0 26.5,11.888 26.5,26.5 v 9.427 c -6,0.71 -11.745,1.073 -17.833,1.073 z m 85.8,-29.293 c -10.98,9.15 -23.967,16.302 -37.967,21.252 v -2.46 c 0,-31.154 -25.179,-56.5 -56.334,-56.5 -29.528,0 -53.738,22.772 -56.196,51.675 C 76.13,198.916 69.122,194.247 62.7,188.895 41.613,171.323 30.021,148.431 30.021,124.437 c 0,-23.994 11.623,-46.885 32.71,-64.457 22.667,-18.889 53.143,-29.292 85.805,-29.292 32.662,0 63.135,10.403 85.802,29.292 21.087,17.572 32.618,40.464 32.618,64.458 0,23.994 -11.694,46.885 -32.781,64.457 z"
         id="path17887" />
      <g
         style="fill:#ffffff;fill-opacity:1;stroke-width:13.49435139"
         id="g17889" />
      <g
         style="fill:#ffffff;fill-opacity:1;stroke-width:13.49435139"
         id="g17891" />
      <g
         style="fill:#ffffff;fill-opacity:1;stroke-width:13.49435139"
         id="g17893" />
      <g
         style="fill:#ffffff;fill-opacity:1;stroke-width:13.49435139"
         id="g17895" />
      <g
         style="fill:#ffffff;fill-opacity:1;stroke-width:13.49435139"
         id="g17897" />
      <g
         style="fill:#ffffff;fill-opacity:1;stroke-width:13.49435139"
         id="g17899" />
      <g
         style="fill:#ffffff;fill-opacity:1;stroke-width:13.49435139"
         id="g17901" />
      <g
         style="fill:#ffffff;fill-opacity:1;stroke-width:13.49435139"
         id="g17903" />
      <g
         style="fill:#ffffff;fill-opacity:1;stroke-width:13.49435139"
         id="g17905" />
      <g
         style="fill:#ffffff;fill-opacity:1;stroke-width:13.49435139"
         id="g17907" />
      <g
         style="fill:#ffffff;fill-opacity:1;stroke-width:13.49435139"
         id="g17909" />
      <g
         style="fill:#ffffff;fill-opacity:1;stroke-width:13.49435139"
         id="g17911" />
      <g
         style="fill:#ffffff;fill-opacity:1;stroke-width:13.49435139"
         id="g17913" />
      <g
         style="fill:#ffffff;fill-opacity:1;stroke-width:13.49435139"
         id="g17915" />
      <g
         style="fill:#ffffff;fill-opacity:1;stroke-width:13.49435139"
         id="g17917" />
    </g>
  </g>
</svg>
