<?xml version="1.0" encoding="UTF-8" standalone="no"?>
<!-- Created with Inkscape (http://www.inkscape.org/) -->

<svg
   xmlns:dc="http://purl.org/dc/elements/1.1/"
   xmlns:cc="http://creativecommons.org/ns#"
   xmlns:rdf="http://www.w3.org/1999/02/22-rdf-syntax-ns#"
   xmlns:svg="http://www.w3.org/2000/svg"
   xmlns="http://www.w3.org/2000/svg"
   xmlns:sodipodi="http://sodipodi.sourceforge.net/DTD/sodipodi-0.dtd"
   xmlns:inkscape="http://www.inkscape.org/namespaces/inkscape"
   width="24"
   height="24"
   viewBox="0 0 6.3499999 6.3500002"
   version="1.1"
   id="svg8"
   inkscape:version="0.92.4 (5da689c313, 2019-01-14)"
   sodipodi:docname="liquify.svg">
  <defs
     id="defs2" />
  <sodipodi:namedview
     id="base"
     pagecolor="#ffffff"
     bordercolor="#666666"
     borderopacity="1.0"
     inkscape:pageopacity="0.0"
     inkscape:pageshadow="2"
     inkscape:zoom="16"
     inkscape:cx="15.460013"
     inkscape:cy="11.507071"
     inkscape:document-units="mm"
     inkscape:current-layer="layer1"
     showgrid="false"
     units="px"
     inkscape:pagecheckerboard="true"
     inkscape:window-width="1718"
     inkscape:window-height="1368"
     inkscape:window-x="-7"
     inkscape:window-y="0"
     inkscape:window-maximized="0" />
  <metadata
     id="metadata5">
    <rdf:RDF>
      <cc:Work
         rdf:about="">
        <dc:format>image/svg+xml</dc:format>
        <dc:type
           rdf:resource="http://purl.org/dc/dcmitype/StillImage" />
        <dc:title></dc:title>
      </cc:Work>
    </rdf:RDF>
  </metadata>
  <g
     inkscape:label="Layer 1"
     inkscape:groupmode="layer"
     id="layer1"
     transform="translate(0,-290.64998)">
    <g
       id="g4789"
       transform="matrix(0.06481901,0,0,0.07570866,-0.06852634,290.19437)"
       style="fill:#ffffff;fill-opacity:1;stroke:none;stroke-width:3.77692604;stroke-opacity:1">
      <path
         id="path4766"
         d="M 70.78669,48.983704 C 70.288567,48.887539 69.857018,48.4394 69.668663,48.177898 l -0.01471,-0.02998 c -0.02809,-0.05599 -0.06109,-0.109158 -0.09823,-0.159702 l -3.054314,-4.137257 -0.05392,-0.07317 c -2.495663,-3.38047 -5.424404,-4.449478 -7.441776,-4.75114 -4.594853,-0.68628 -8.293202,1.926475 -8.706665,2.231537 l -6.616745,4.884815 c -1.550522,1.144611 -2.841263,1.544693 -3.836369,1.188358 -0.688538,-0.246231 -1.150265,-0.7798 -1.213802,-0.855965 L 36.359877,43.397319 C 33.86439,40.017043 30.935646,38.947841 28.9181,38.646548 c -4.594661,-0.686649 -8.293029,1.92611 -8.706493,2.231167 L 5.5795536,51.679977 C 5.09765,52.035755 4.9954619,52.714485 5.3510447,53.196197 l 3.6802588,4.985516 c 0.1708221,0.231136 0.4264755,0.385181 0.7111664,0.427982 0.2843231,0.04278 0.5741101,-0.02923 0.8054381,-0.199859 L 25.169014,47.615681 c 0.374445,-0.250771 1.522068,-0.843899 2.512846,-0.695721 0.666279,0.09937 1.303541,0.572411 1.948351,1.445709 l 2.255842,3.055645 c 0.430067,0.592953 2.790182,3.584286 7.010592,4.268116 3.231349,0.523758 6.51305,-0.423832 9.754013,-2.816574 l 6.605602,-4.876709 c 0.374638,-0.250767 1.522068,-0.843895 2.512653,-0.695892 0.666474,0.09954 1.305821,0.574844 1.954007,1.453048 l 2.854454,3.865964 c 0.578243,0.906509 2.653102,3.731555 6.438953,4.540565 3.174606,0.677979 6.468353,-0.221153 9.789825,-2.673473 l 7.117684,-5.254917 1.70401,2.334281 c 0.189468,0.260365 0.50264,0.398945 0.822212,0.36464 0.319191,-0.03431 0.595772,-0.236058 0.726417,-0.529976 L 94.86335,38.551346 c 0.01,-0.02245 0.01887,-0.04525 0.02696,-0.06807 0.09673,-0.277142 0.05205,-0.585968 -0.122727,-0.825791 -0.189476,-0.259243 -0.50264,-0.397632 -0.822029,-0.36425 L 79.97434,38.790591 c -0.319191,0.03433 -0.596352,0.236424 -0.726242,0.530556 -0.129723,0.290348 -0.09371,0.634037 0.09578,0.89328 l 1.649139,2.259819 -7.155021,5.282448 c -1.240196,0.915543 -2.352196,1.362755 -3.0513,1.227013 z"
         inkscape:connector-curvature="0"
         style="fill:#ffffff;fill-opacity:1;stroke:none;stroke-width:3.77692604;stroke-opacity:1" />
      <path
         id="path4768"
         d="M 6.1338563,34.335819 20.104901,32.838444 c 0.319383,-0.03431 0.596525,-0.236424 0.726244,-0.530537 0.129719,-0.290348 0.09389,-0.634056 -0.09558,-0.893301 l -1.649143,-2.2598 7.155002,-5.282467 c 1.240216,-0.915542 2.3522,-1.362753 3.051298,-1.22699 0.498122,0.09634 0.929869,0.544495 1.11822,0.805806 l 0.01452,0.03016 c 0.02828,0.05581 0.06108,0.109176 0.09823,0.159702 l 3.05431,4.137276 0.05412,0.07296 c 2.495491,3.380489 5.424236,4.449499 7.441586,4.751158 4.594856,0.686454 8.293224,-1.926302 8.706859,-2.231535 l 6.616551,-4.884642 c 1.55035,-1.144804 2.841457,-1.544502 3.836177,-1.188534 0.688538,0.246214 1.150265,0.779781 1.213803,0.856136 l 2.272274,3.077885 c 2.495659,3.380489 5.424423,4.449497 7.441948,4.750965 4.59468,0.686646 8.293029,-1.926109 8.706298,-2.231342 L 94.499855,19.949247 c 0.481712,-0.355775 0.584091,-1.034507 0.228317,-1.516412 l -3.680259,-4.985131 c -0.170822,-0.231134 -0.426476,-0.385739 -0.711167,-0.428155 -0.284134,-0.0428 -0.574089,0.02921 -0.805053,0.199839 l -14.6213,10.793984 c -0.374619,0.25075 -1.522064,0.84409 -2.512825,0.696087 -0.666298,-0.09973 -1.303559,-0.57241 -1.948349,-1.445903 l -2.25586,-3.055625 c -0.430053,-0.59276 -2.789993,-3.584306 -7.010788,-4.268135 -3.231155,-0.52374 -6.512855,0.423851 -9.753818,2.816767 l -6.605797,4.876341 c -0.374428,0.25075 -1.521873,0.843895 -2.512634,0.696087 -0.666298,-0.09956 -1.305626,-0.575037 -1.953816,-1.453261 l -2.854469,-3.865772 c -0.578438,-0.906488 -2.653107,-3.731537 -6.438761,-4.540372 -3.174782,-0.678365 -6.468355,0.22096 -9.790018,2.673282 l -7.117683,5.254742 -1.703991,-2.334109 c -0.189298,-0.260364 -0.502465,-0.398945 -0.822216,-0.364637 -0.319017,0.03433 -0.595791,0.236057 -0.72663,0.530168 L 5.2162485,33.077705 c -0.010001,0.02244 -0.019036,0.04525 -0.026952,0.06806 -0.096918,0.277355 -0.05205,0.585987 0.1225371,0.825809 0.1896649,0.259418 0.5026389,0.397804 0.8220225,0.36425 z"
         inkscape:connector-curvature="0"
         style="fill:#ffffff;fill-opacity:1;stroke:none;stroke-width:3.77692604;stroke-opacity:1" />
      <path
         id="path4770"
         d="m 91.047913,62.009396 c -0.170822,-0.231522 -0.426476,-0.385739 -0.711167,-0.428349 -0.284134,-0.0428 -0.574089,0.02923 -0.805053,0.200031 l -14.6213,10.794178 c -0.374619,0.250557 -1.522064,0.843895 -2.512825,0.695702 -0.666489,-0.09974 -1.303559,-0.572395 -1.948349,-1.445908 l -2.25586,-3.055618 c -0.430053,-0.592766 -2.790359,-3.584114 -7.010788,-4.26812 -3.231155,-0.523563 -6.512855,0.424027 -9.753818,2.81675 l -6.605602,4.876533 c -0.374623,0.250748 -1.521878,0.843895 -2.512658,0.696091 -0.666278,-0.09974 -1.305603,-0.575043 -1.953987,-1.453262 l -2.854469,-3.865776 c -0.578243,-0.906678 -2.653107,-3.731533 -6.438761,-4.540371 -3.174782,-0.678364 -6.468355,0.220958 -9.789825,2.673092 l -7.117876,5.254738 -1.703818,-2.333916 c -0.189471,-0.260361 -0.502638,-0.398941 -0.822389,-0.364639 -0.319017,0.03433 -0.595791,0.236061 -0.72663,0.529808 L 5.2162485,81.639397 c -0.010001,0.02244 -0.019036,0.04526 -0.026952,0.06788 -0.096724,0.277336 -0.05205,0.586159 0.1225371,0.825982 0.1896648,0.259246 0.5026388,0.397811 0.8220224,0.364448 l 13.971218,-1.497568 c 0.31921,-0.03431 0.596352,-0.236427 0.726071,-0.53035 0.129718,-0.290344 0.09389,-0.634247 -0.09541,-0.893661 l -1.649316,-2.259819 7.155195,-5.282082 c 1.240023,-0.915741 2.352007,-1.362755 3.0513,-1.227188 0.498121,0.09615 0.929674,0.544495 1.118025,0.806 l 0.01471,0.02979 c 0.02809,0.05598 0.06089,0.109344 0.09823,0.159675 l 3.054312,4.137283 0.05392,0.07315 c 2.495491,3.380486 5.424236,4.449493 7.44178,4.75116 4.594852,0.686447 8.29303,-1.926308 8.706665,-2.231537 l 6.616356,-4.884834 c 1.550545,-1.144616 2.841461,-1.544503 3.836372,-1.18834 0.688362,0.246033 1.150265,0.779587 1.213803,0.856133 l 2.272274,3.077881 c 2.495659,3.380493 5.424423,4.449501 7.441948,4.750969 4.59449,0.68647 8.292839,-1.92611 8.706298,-2.231339 L 94.499665,68.510941 c 0.481903,-0.355782 0.584281,-1.034508 0.228508,-1.516587 z"
         inkscape:connector-curvature="0"
         style="fill:#ffffff;fill-opacity:1;stroke:none;stroke-width:3.77692604;stroke-opacity:1" />
    </g>
  </g>
</svg>
