<svg width="24" height="24" version="1.1" viewBox="0 0 24 24" xml:space="preserve" xmlns="http://www.w3.org/2000/svg"><g stroke-width="13.638"><g transform="matrix(.040666 -.0043618 -.0043558 .040804 4.2196 1.2078)"><g stroke-width="13.638"><path d="m180.44 342.68c-23.852-23.852-63.353-34.368-99.873-18.984-32.344 14.59-53.481 46.978-53.833 82.69 0 39.434-6.87 71.147-13.652 82.09l-13.081 21.093 24.756 1.772c6.064 0.44 12.422 0.66 18.97 0.66 48.193 0 106.98-12.1 138.72-41.25 31.192-29.068 34.803-91.261-2.008-128.07z" fill="#fff" stroke-width="13.638"/></g></g><g transform="matrix(.040666 -.0043618 -.0043558 .040804 4.2196 1.2078)"><g stroke-width="13.638"><path d="m244.26 279.14c-14.681-14.688-31.222-26.187-48.744-34.531-15.172 15.654-29.929 31.505-44.266 47.3 18.763 5.281 36.026 15.167 50.413 29.594 14.407 14.377 24.719 32.302 30.17 51.85 15.613-14.143 31.317-28.707 47.091-43.885-8.009-18.305-19.601-35.678-34.664-50.328z" fill="#fff" stroke-width="13.638"/></g></g><g transform="matrix(.040666 -.0043618 -.0043558 .040804 4.2196 1.2078)"><g stroke-width="13.638"><path d="m440 72c-11.235-11.221-28.027-18.163-117.85 51.71-53.438 41.572-45.088 38.72-103.26 96.889l-1.185 1.185-0.046-0.027-0.337 0.339c17.186 9.293 33.435 21.105 48.003 35.682 15.033 14.617 27.173 31.661 36.381 49.788l0.416-0.408-0.06-0.101 1.672-1.672 93.023-112.71c58.499-77.039 54.506-109.41 43.241-120.68z" fill="#fff" stroke-width="13.638"/></g></g></g></svg>
