<?xml version="1.0" encoding="UTF-8" standalone="no"?>
<svg
   xmlns:dc="http://purl.org/dc/elements/1.1/"
   xmlns:cc="http://creativecommons.org/ns#"
   xmlns:rdf="http://www.w3.org/1999/02/22-rdf-syntax-ns#"
   xmlns:svg="http://www.w3.org/2000/svg"
   xmlns="http://www.w3.org/2000/svg"
   xmlns:sodipodi="http://sodipodi.sourceforge.net/DTD/sodipodi-0.dtd"
   xmlns:inkscape="http://www.inkscape.org/namespaces/inkscape"
   version="1.1"
   id="Capa_1"
   x="0px"
   y="0px"
   viewBox="0 0 24 24"
   xml:space="preserve"
   width="24"
   height="24"
   sodipodi:docname="pen.svg"
   inkscape:version="0.92.1 r15371"><metadata
     id="metadata8430"><rdf:RDF><cc:Work
         rdf:about=""><dc:format>image/svg+xml</dc:format><dc:type
           rdf:resource="http://purl.org/dc/dcmitype/StillImage" /><dc:title></dc:title></cc:Work></rdf:RDF></metadata><defs
     id="defs8428" /><sodipodi:namedview
     pagecolor="#ffffff"
     bordercolor="#666666"
     borderopacity="1"
     objecttolerance="10"
     gridtolerance="10"
     guidetolerance="10"
     inkscape:pageopacity="0"
     inkscape:pageshadow="2"
     inkscape:window-width="1717"
     inkscape:window-height="1368"
     id="namedview8426"
     showgrid="false"
     inkscape:pagecheckerboard="true"
     inkscape:zoom="16"
     inkscape:cx="5.752275"
     inkscape:cy="8.4062606"
     inkscape:window-x="-7"
     inkscape:window-y="0"
     inkscape:window-maximized="0"
     inkscape:current-layer="Capa_1" /><g
     id="g8423"
     transform="matrix(0.05468748,0,0,0.05495022,-1.6777054e-4,-4.5671898)"
     style="stroke-width:18.2419529"><g
       id="g8421"
       style="stroke-width:18.2419529"><g
         id="g8419"
         style="stroke-width:18.2419529" /></g></g><g
     id="g26969"
     transform="matrix(0.02366149,0,0,0.02326887,0.81440425,1.000005)"
     style="fill:#f7f7f7;fill-opacity:1;stroke-width:42.61781311"><g
       id="g26912"
       style="fill:#f7f7f7;fill-opacity:1;stroke-width:42.61781311"><path
         id="path26908"
         d="m 38.348,944.29 183.3,-60.1 c 6.7,-2.2 12.8,-5.9 17.7,-10.9 l 429.6,-432.1 -171.101,-171.2 -428.5,431 c -5.6,5.7 -9.6,12.8 -11.6,20.601 l -49.2,195 c -4.399,17.5 12.601,33.399 29.801,27.699 z"
         inkscape:connector-curvature="0"
         style="fill:#f7f7f7;fill-opacity:1;stroke-width:42.61781311" /><path
         id="path26910"
         d="m 921.748,102.49 -86.601,-86.6 c -20.899,-20.9 -63.3,-21.2 -83.8,-0.8 l -211.2,212.4 171.2,171.2 66.5,-66.9 32.4,32.6 c 7.8,7.8 7.7,20.5 0,28.3 l -52.5,52.4 -42.5,42.399 -177.9,177.4 c -15.6,15.6 -15.7,40.899 -0.1,56.6 7.8,7.8 18.1,11.7 28.3,11.7 10.2,0 20.4,-3.9 28.3,-11.7 l 272.9,-272.3 c 39,-38.9 39.1,-102.3 0.2,-141.3 l -32.7,-32.9 88.2,-88.7 c 20.501,-20.498 20.2,-62.898 -0.699,-83.799 z"
         inkscape:connector-curvature="0"
         style="fill:#f7f7f7;fill-opacity:1;stroke-width:42.61781311" /></g><g
       id="g26914"
       style="fill:#f7f7f7;fill-opacity:1;stroke-width:42.61781311" /><g
       id="g26916"
       style="fill:#f7f7f7;fill-opacity:1;stroke-width:42.61781311" /><g
       id="g26918"
       style="fill:#f7f7f7;fill-opacity:1;stroke-width:42.61781311" /><g
       id="g26920"
       style="fill:#f7f7f7;fill-opacity:1;stroke-width:42.61781311" /><g
       id="g26922"
       style="fill:#f7f7f7;fill-opacity:1;stroke-width:42.61781311" /><g
       id="g26924"
       style="fill:#f7f7f7;fill-opacity:1;stroke-width:42.61781311" /><g
       id="g26926"
       style="fill:#f7f7f7;fill-opacity:1;stroke-width:42.61781311" /><g
       id="g26928"
       style="fill:#f7f7f7;fill-opacity:1;stroke-width:42.61781311" /><g
       id="g26930"
       style="fill:#f7f7f7;fill-opacity:1;stroke-width:42.61781311" /><g
       id="g26932"
       style="fill:#f7f7f7;fill-opacity:1;stroke-width:42.61781311" /><g
       id="g26934"
       style="fill:#f7f7f7;fill-opacity:1;stroke-width:42.61781311" /><g
       id="g26936"
       style="fill:#f7f7f7;fill-opacity:1;stroke-width:42.61781311" /><g
       id="g26938"
       style="fill:#f7f7f7;fill-opacity:1;stroke-width:42.61781311" /><g
       id="g26940"
       style="fill:#f7f7f7;fill-opacity:1;stroke-width:42.61781311" /><g
       id="g26942"
       style="fill:#f7f7f7;fill-opacity:1;stroke-width:42.61781311" /></g></svg>