<?xml version="1.0" encoding="UTF-8" standalone="no"?>
<svg
   xmlns:dc="http://purl.org/dc/elements/1.1/"
   xmlns:cc="http://creativecommons.org/ns#"
   xmlns:rdf="http://www.w3.org/1999/02/22-rdf-syntax-ns#"
   xmlns:svg="http://www.w3.org/2000/svg"
   xmlns="http://www.w3.org/2000/svg"
   xmlns:sodipodi="http://sodipodi.sourceforge.net/DTD/sodipodi-0.dtd"
   xmlns:inkscape="http://www.inkscape.org/namespaces/inkscape"
   version="1.1"
   id="Capa_1"
   x="0px"
   y="0px"
   viewBox="0 0 32 32"
   xml:space="preserve"
   width="32"
   height="32"
   sodipodi:docname="retouch.svg"
   inkscape:version="0.92.1 r15371"><metadata
     id="metadata8492"><rdf:RDF><cc:Work
         rdf:about=""><dc:format>image/svg+xml</dc:format><dc:type
           rdf:resource="http://purl.org/dc/dcmitype/StillImage" /><dc:title></dc:title></cc:Work></rdf:RDF></metadata><defs
     id="defs8490" /><sodipodi:namedview
     pagecolor="#ffffff"
     bordercolor="#666666"
     borderopacity="1"
     objecttolerance="10"
     gridtolerance="10"
     guidetolerance="10"
     inkscape:pageopacity="0"
     inkscape:pageshadow="2"
     inkscape:window-width="1718"
     inkscape:window-height="1368"
     id="namedview8488"
     showgrid="false"
     inkscape:pagecheckerboard="true"
     borderlayer="true"
     inkscape:showpageshadow="false"
     showguides="false"
     inkscape:zoom="14.75"
     inkscape:cx="13.797036"
     inkscape:cy="25.972656"
     inkscape:window-x="-7"
     inkscape:window-y="0"
     inkscape:window-maximized="0"
     inkscape:current-layer="Capa_1" /><g
     id="g8485"
     transform="matrix(0.13636867,0,0,0.13637479,1.0000237,0.99931813)"
     style="stroke-width:7.33289814"><path
       d="m 147.206,102.657 -33.167,30.359 -27.075,-27.075 30.359,-33.167 z m -65.649,9.191 -78.122,85.347 c -4.793,5.416 -4.541,13.664 0.572,18.777 2.589,2.589 6.031,4.015 9.694,4.015 3.349,0 6.574,-1.223 9.133,-3.487 l 85.297,-78.077 z M 211.809,50.894 169.085,8.17 c -5.266,-5.265 -11.898,-8.165 -18.678,-8.165 -9.933,0 -17.749,6.389 -19.449,15.897 L 121.979,66.116 153.863,98 204.077,89.021 c 7.306,-1.306 12.746,-6.039 14.927,-12.985 2.645,-8.424 -0.112,-18.058 -7.195,-25.142 z"
       data-original="#000000"
       class="active-path"
       data-old_color="#ffffff"
       id="path8483"
       inkscape:connector-curvature="0"
       style="fill:#ffffff;stroke-width:7.33289814" /></g></svg>