<?xml version="1.0" encoding="UTF-8" standalone="no"?>
<svg
   xmlns:dc="http://purl.org/dc/elements/1.1/"
   xmlns:cc="http://creativecommons.org/ns#"
   xmlns:rdf="http://www.w3.org/1999/02/22-rdf-syntax-ns#"
   xmlns:svg="http://www.w3.org/2000/svg"
   xmlns="http://www.w3.org/2000/svg"
   xmlns:sodipodi="http://sodipodi.sourceforge.net/DTD/sodipodi-0.dtd"
   xmlns:inkscape="http://www.inkscape.org/namespaces/inkscape"
   inkscape:version="1.0beta1 (fe3e306, 2019-09-17)"
   sodipodi:docname="color.svg"
   id="svg72381"
   xml:space="preserve"
   viewBox="0 0 24 24"
   version="1.1"
   height="24"
   width="24">
  <metadata
     id="metadata72387">
    <rdf:RDF>
      <cc:Work
         rdf:about="">
        <dc:format>image/svg+xml</dc:format>
        <dc:type
           rdf:resource="http://purl.org/dc/dcmitype/StillImage" />
        <dc:title></dc:title>
      </cc:Work>
    </rdf:RDF>
  </metadata>
  <defs
     id="defs72385" />
  <sodipodi:namedview
     inkscape:document-rotation="0"
     inkscape:current-layer="svg72381"
     inkscape:window-maximized="0"
     inkscape:window-y="0"
     inkscape:window-x="-7"
     inkscape:cy="5.8286353"
     inkscape:cx="8.7014734"
     inkscape:zoom="15.839192"
     inkscape:pagecheckerboard="true"
     showgrid="false"
     id="namedview72383"
     inkscape:window-height="1368"
     inkscape:window-width="1717"
     inkscape:pageshadow="2"
     inkscape:pageopacity="0"
     guidetolerance="10"
     gridtolerance="10"
     objecttolerance="10"
     borderopacity="1"
     bordercolor="#666666"
     pagecolor="#ffffff" />
  <g
     style="clip-rule:evenodd;fill-rule:evenodd;stroke-width:409096.53125;image-rendering:optimizeQuality;shape-rendering:geometricPrecision;text-rendering:geometricPrecision"
     id="g72379"
     transform="matrix(1.7284832e-6,1.7284832e-6,-1.7284792e-6,1.7284792e-6,-7.3661538,22.297947)"><g
   style="fill:#ffffff;stroke-width:427290.03125"
   id="g72373" />
<text
   style="font-weight:bold;font-size:5px;font-family:'Helvetica Neue', Helvetica, Arial-Unicode, Arial, Sans-serif;fill:#ffffff;stroke-width:427290"
   id="text72375"
   font-weight="bold"
   font-size="5px"
   y="9000015">Created by fafa maulinda</text>

<text
   style="font-weight:bold;font-size:5px;font-family:'Helvetica Neue', Helvetica, Arial-Unicode, Arial, Sans-serif;fill:#ffffff;stroke-width:427290"
   id="text72377"
   font-weight="bold"
   font-size="5px"
   y="9000020">from the Noun Project</text>

</g>
  <path
     id="path905"
     d="M 12,6 C 8.6915904,6 6,8.6915916 6,12.000001 6,15.30841 8.6915904,18 12,18 15.30841,18 18,15.30841 18,12.000001 18,8.6915916 15.30841,6 12,6 Z"
     inkscape:connector-curvature="0"
     style="fill:#ffffff;fill-opacity:1;stroke-width:0.999987" />
  <g
     style="stroke-width:21.3333;fill:#ffffff;fill-opacity:1"
     transform="scale(0.046875)"
     id="g1154">
    <g
       style="stroke-width:21.3333;fill:#ffffff;fill-opacity:1"
       id="g1095">
	<g
   style="stroke-width:21.3333;fill:#ffffff;fill-opacity:1"
   id="g1093">
		<g
   style="stroke-width:21.3333;fill:#ffffff;fill-opacity:1"
   id="g1091">
			
			<path
   sodipodi:nodetypes="cccccccccccccccccccccccccccccccccccccccsscc"
   style="fill:#ffffff;fill-opacity:1;stroke-width:21.3333"
   inkscape:connector-curvature="0"
   d="M 465.463,302.629 512,256.091 465.463,209.371 c -4.661,-4.626 -6.476,-11.4 -4.754,-17.737 l 17.006,-63.543 -63.634,-17.189 C 407.736,109.22 402.78,104.264 401.098,97.919 L 384.092,34.376 320.366,51.29 c -6.337,1.746 -13.123,-0.072 -17.737,-4.754 L 256.091,0 209.371,46.537 c -4.62,4.671 -11.4,6.488 -17.737,4.754 L 128.091,34.285 110.903,97.92 c -1.682,6.345 -6.638,11.301 -12.983,12.983 l -63.543,17.006 16.914,63.726 c 1.722,6.337 -0.094,13.111 -4.754,17.737 L 0,255.909 l 46.537,46.72 c 4.66,4.626 6.476,11.4 4.754,17.737 l -17.006,63.543 63.634,17.189 c 6.345,1.682 11.301,6.638 12.983,12.983 l 17.006,63.543 63.726,-16.914 c 1.515,-0.437 3.086,-0.652 4.662,-0.64 4.9,0.001 9.6,1.94 13.075,5.394 l 46.538,46.536 46.72,-46.537 c 4.614,-4.682 11.4,-6.501 17.737,-4.754 l 63.543,17.006 17.189,-63.634 c 1.682,-6.345 6.638,-11.301 12.983,-12.983 l 63.543,-17.006 -16.914,-63.726 c -1.723,-6.337 0.092,-13.111 4.753,-17.737 z M 256,426.66667 C 155.011,426.66667 85.333333,356.989 85.333333,256 85.333333,155.011 155.011,85.333333 256,85.333333 356.989,85.333333 426.66667,155.011 426.66667,256 426.56567,356.947 356.947,426.56567 256,426.66667 Z"
   id="path1089" />

		</g>

	</g>

</g>
    <g
       style="stroke-width:21.3333;fill:#ffffff;fill-opacity:1"
       id="g1097">
</g>
    <g
       style="stroke-width:21.3333;fill:#ffffff;fill-opacity:1"
       id="g1099">
</g>
    <g
       style="stroke-width:21.3333;fill:#ffffff;fill-opacity:1"
       id="g1101">
</g>
    <g
       style="stroke-width:21.3333;fill:#ffffff;fill-opacity:1"
       id="g1103">
</g>
    <g
       style="stroke-width:21.3333;fill:#ffffff;fill-opacity:1"
       id="g1105">
</g>
    <g
       style="stroke-width:21.3333;fill:#ffffff;fill-opacity:1"
       id="g1107">
</g>
    <g
       style="stroke-width:21.3333;fill:#ffffff;fill-opacity:1"
       id="g1109">
</g>
    <g
       style="stroke-width:21.3333;fill:#ffffff;fill-opacity:1"
       id="g1111">
</g>
    <g
       style="stroke-width:21.3333;fill:#ffffff;fill-opacity:1"
       id="g1113">
</g>
    <g
       style="stroke-width:21.3333;fill:#ffffff;fill-opacity:1"
       id="g1115">
</g>
    <g
       style="stroke-width:21.3333;fill:#ffffff;fill-opacity:1"
       id="g1117">
</g>
    <g
       style="stroke-width:21.3333;fill:#ffffff;fill-opacity:1"
       id="g1119">
</g>
    <g
       style="stroke-width:21.3333;fill:#ffffff;fill-opacity:1"
       id="g1121">
</g>
    <g
       style="stroke-width:21.3333;fill:#ffffff;fill-opacity:1"
       id="g1123">
</g>
    <g
       style="stroke-width:21.3333;fill:#ffffff;fill-opacity:1"
       id="g1125">
</g>
  </g>
</svg>
