<?xml version="1.0" encoding="UTF-8"?>
<svg width="202px" height="36px" viewBox="0 0 202 36" version="1.1" xmlns="http://www.w3.org/2000/svg" xmlns:xlink="http://www.w3.org/1999/xlink">
    <!-- Generator: Sketch 60.1 (88133) - https://sketch.com -->
    <title>pixlr x logo</title>
    <desc>Created with Sketch.</desc>
    <g id="Ver-2" stroke="none" stroke-width="1" fill="none" fill-rule="evenodd">
        <g id="pixlr-user-landing-page" transform="translate(-156.000000, -210.000000)" fill-rule="nonzero">
            <g id="pixlr-x-logo" transform="translate(156.409152, 210.279831)">
                <polygon id="X" fill="#2293BE" points="185.087306 28.9601686 190.329591 21.1443972 195.571877 28.9601686 201.068334 28.9601686 201.068334 28.8013115 193.443191 17.7766257 200.941248 6.9425686 200.941248 6.7201686 195.508334 6.7201686 190.329591 14.6312543 185.119077 6.7201686 179.686163 6.7201686 179.686163 6.9425686 187.152448 17.7766257 179.590848 28.8013115 179.590848 28.9601686"></polygon>
                <path d="M17.4408484,0.000332302692 C17.0413484,0.000332302692 16.6503484,0.000332302692 16.2593484,0.0601686016 L17.0583484,1.4201686 L17.4748484,1.4201686 C21.8345223,1.41960166 26.0106343,3.17522319 29.0603484,6.2906686 L27.8193484,8.3901686 C26.6423659,7.08033371 25.2331349,5.99963512 23.6628484,5.2026686 C22.0353472,4.39653358 20.2646058,3.91990662 18.4523484,3.8001686 L19.3023484,5.2536686 C20.478501,5.42524186 21.6236759,5.7659314 22.7023484,6.2651686 C24.395699,7.05968542 25.8910102,8.2210922 27.0798484,9.6651686 L23.1358484,16.4651686 L20.5858484,12.0196686 L20.5858484,12.0196686 L18.3248484,8.1096686 L13.8623484,0.374668602 C5.09648686,2.29241429 -0.830222985,10.4886457 0.0949670602,19.4140084 C1.0201571,28.3393712 8.50200941,35.1456907 17.4748484,35.2246686 C17.6448484,35.2246686 17.8148484,35.2246686 17.9763484,35.2246686 L17.1943484,33.8731686 C12.8552069,33.8061159 8.72562743,31.9955956 5.73634843,28.8496686 L6.97734843,26.6906686 C9.21391905,29.2936574 12.3364708,30.9745655 15.7408484,31.4081686 L14.8908484,29.8696686 C12.0622509,29.2654887 9.52850899,27.7044154 7.71684843,25.4496686 L11.3293484,19.1851686 L11.9838484,20.3241686 L14.5338484,24.6676686 L20.4838484,34.9951686 C29.5369126,33.4658197 35.8984072,25.2411977 35.1030318,16.0943809 C34.3076564,6.94756416 26.6220094,-0.0555673312 17.4408484,0.000332302692 Z M13.1908484,1.9556686 L14.4233484,4.0891686 L15.2053484,5.4406686 L15.1458484,5.3301686 L19.0048484,12.0111686 L2.23434843,12.0111686 C4.05723001,7.09260709 8.13429705,3.35081476 13.1908484,1.9556686 L13.1908484,1.9556686 Z M6.84134843,24.2171686 L6.06784843,25.5431686 L4.78434843,27.7701686 C2.46938534,24.8946145 1.20943622,21.3127592 1.21433412,17.6211686 C1.21930461,16.1852499 1.4136475,14.756258 1.79234843,13.3711686 L13.0973484,13.3711686 L6.84134843,24.2171686 Z M13.6413484,20.4771686 L12.1028484,17.8251686 L13.8028484,14.8331686 L14.6528484,13.3796686 L19.7528484,13.3796686 L22.3028484,17.8251686 L20.6028484,20.8341686 L19.7528484,22.2706686 L14.6528484,22.2706686 L13.6413484,20.4771686 Z M21.1383484,33.4651686 L19.8803484,31.2976686 L19.1408484,30.0311686 L15.4518484,23.6391686 L32.5793484,23.6391686 C30.5984918,28.585868 26.3274465,32.2540168 21.1383484,33.4651686 L21.1383484,33.4651686 Z M30.5563484,22.2706686 L21.3848484,22.2706686 L27.9808484,10.8381686 L28.7373484,9.5291686 L30.0293484,7.3021686 C33.4823268,11.4694798 34.6184223,17.089323 33.0553484,22.2706686 L30.5563484,22.2706686 Z" id="Shape" fill="#231F20"></path>
                <path d="M48.3213484,21.0721686 L48.3213484,28.7646686 L46.6213484,28.7646686 L46.6213484,6.5201686 L56.3708484,6.5201686 C66.0438484,6.5201686 66.0438484,21.0976686 56.3708484,21.0976686 L48.3213484,21.0721686 Z M48.3213484,8.0841686 L48.3213484,19.5081686 L56.3708484,19.5081686 C63.7828484,19.5081686 63.7828484,8.0841686 56.3708484,8.0841686 L48.3213484,8.0841686 Z" id="Shape" fill="#231F20"></path>
                <polygon id="Path" fill="#231F20" points="75.3938484 28.7646686 75.3938484 6.5201686 77.0938484 6.5201686 77.0938484 28.7901686"></polygon>
                <polygon id="Path" fill="#231F20" points="104.854848 6.5201686 106.690848 6.5201686 106.690848 6.5201686 99.1173484 17.3066686 107.294348 28.6966686 107.294348 28.6966686 105.254348 28.6966686 98.0633484 18.4966686 90.8723484 28.6966686 88.8408484 28.6966686 88.8408484 28.6966686 97.0178484 17.3066686 89.4443484 6.5201686 89.4443484 6.5201686 91.3228484 6.5201686 98.0633484 16.0316686"></polygon>
                <polygon id="Path" fill="#231F20" points="120.163348 6.5201686 120.163348 27.1751686 132.700848 27.1751686 132.700848 28.7901686 118.446348 28.7901686 118.446348 6.5201686"></polygon>
                <path d="M161.313348,28.9646686 L159.018348,28.9646686 L151.368348,20.5326686 L145.290848,20.5326686 L145.290848,28.9646686 L143.590848,28.9646686 L143.590848,6.7201686 L153.391348,6.7201686 C158.227848,6.7201686 160.675848,10.1881686 160.709848,13.6561686 C160.709848,17.2856686 158.355348,20.4561686 153.484848,20.4561686 L161.313348,28.9646686 Z M145.282348,18.9176686 L153.170348,18.9176686 C157.046348,18.9176686 158.771848,16.7161686 158.797348,13.6051686 C158.863651,12.1535805 158.307604,10.7426371 157.268807,9.72656382 C156.23001,8.71049053 154.807115,8.18578175 153.357348,8.2841686 L145.282348,8.2841686 L145.282348,18.9176686 Z" id="Shape" fill="#231F20"></path>
            </g>
        </g>
    </g>
</svg>